<?xml version="1.0" standalone="no"?>
<!DOCTYPE svg PUBLIC "-//W3C//DTD SVG 20010904//EN"
 "http://www.w3.org/TR/2001/REC-SVG-20010904/DTD/svg10.dtd">
<svg version="1.0" xmlns="http://www.w3.org/2000/svg"
 width="1920.000000pt" height="1920.000000pt" viewBox="0 0 1920.000000 1920.000000"
 preserveAspectRatio="xMidYMid meet">
<metadata>
Created by potrace 1.16, written by Peter Selinger 2001-2019
</metadata>
<g transform="translate(0.000000,1920.000000) scale(0.100000,-0.100000)"
fill="#000000" stroke="none">
<path d="M12898 16023 c-28 -19 -90 -53 -137 -74 -144 -64 -324 -189 -271
-189 6 0 10 -4 10 -10 0 -5 -18 -10 -40 -10 -27 0 -43 -5 -46 -15 -4 -8 -14
-15 -24 -15 -11 0 -22 -4 -25 -10 -3 -5 -17 -10 -30 -10 -13 0 -27 -4 -30 -10
-3 -5 -19 -10 -34 -10 -15 0 -33 -6 -40 -12 -11 -10 -14 -10 -18 0 -5 13 -53
17 -53 4 0 -5 7 -23 16 -40 16 -34 12 -52 -12 -52 -12 0 -14 -7 -9 -31 7 -31
7 -32 -16 -15 -26 18 -59 21 -59 6 0 -14 -88 -4 -132 14 -44 19 -77 10 -101
-28 -10 -14 -40 -44 -68 -65 -27 -22 -49 -43 -49 -46 1 -4 -1 -9 -4 -13 -3 -3
-6 0 -6 7 0 8 -6 11 -16 7 -9 -4 -27 0 -39 8 -24 16 -75 9 -140 -19 -22 -10
-84 -33 -139 -51 -54 -19 -110 -43 -124 -54 -15 -13 -33 -18 -45 -14 -22 7
-107 -14 -107 -27 0 -5 4 -9 9 -9 17 0 19 -39 3 -45 -9 -3 -18 -1 -20 4 -2 6
-17 11 -33 11 -26 0 -29 -3 -23 -25 5 -20 3 -24 -10 -19 -9 3 -16 10 -16 14 0
22 -36 16 -85 -16 -70 -44 -214 -97 -305 -110 -65 -10 -107 -30 -113 -54 -5
-19 -11 -21 -63 -17 -83 6 -134 -18 -105 -48 5 -6 12 -33 16 -61 8 -61 -5 -75
-37 -42 -13 13 -33 31 -45 41 l-22 19 1 -41 c0 -23 4 -41 9 -41 5 0 9 -4 9
-10 0 -11 -28 -9 -47 3 -8 5 -13 3 -14 -5 0 -7 -5 0 -9 16 -6 18 -5 36 1 48
14 25 -5 48 -33 40 -15 -3 -19 -1 -16 9 5 14 52 29 98 32 14 1 33 10 42 19 16
16 15 18 -18 24 -63 12 -212 -16 -221 -42 -2 -5 9 -22 24 -38 14 -16 20 -27
12 -24 -8 3 -34 -1 -59 -8 -25 -8 -59 -14 -76 -14 -16 0 -48 -8 -70 -19 -21
-10 -61 -21 -87 -25 -43 -5 -47 -4 -33 9 8 8 19 15 25 15 6 0 11 7 11 16 0 10
-6 14 -15 11 -8 -4 -17 -2 -20 3 -4 6 -14 10 -24 10 -10 0 -24 7 -31 15 -11
14 -80 22 -80 10 0 -3 13 -29 30 -58 29 -51 29 -53 10 -65 -28 -17 -31 -15
-24 12 5 19 0 26 -25 37 -17 8 -31 18 -31 22 0 5 -6 7 -12 4 -7 -2 -26 2 -41
10 -26 13 -29 13 -33 -4 -5 -20 -26 -35 -82 -63 -26 -13 -46 -15 -90 -9 -31 4
-58 6 -60 4 -3 -2 -4 -15 -4 -29 0 -15 -9 -28 -22 -34 l-21 -11 23 0 c31 -1
27 -28 -5 -34 -35 -6 -43 5 -43 64 0 70 -26 89 -131 94 -77 4 -171 -4 -257
-21 -21 -4 -43 -2 -57 6 -16 9 -38 10 -67 5 -49 -9 -100 -9 -176 1 -29 3 -60
3 -70 -1 -9 -4 -26 -8 -37 -10 -62 -6 -182 -28 -197 -36 -10 -6 -18 -19 -18
-30 0 -11 -9 -32 -21 -48 -18 -25 -19 -33 -10 -91 11 -67 9 -80 -15 -80 -11 0
-13 6 -9 19 3 10 -1 38 -9 62 -10 28 -12 46 -5 50 6 3 4 11 -6 19 -12 10 -15
10 -15 -4 0 -13 -4 -15 -18 -7 -11 6 -24 6 -35 0 -18 -11 -24 -39 -7 -39 6 0
10 5 10 10 0 19 17 10 31 -17 7 -16 15 -30 16 -33 2 -3 -7 -6 -19 -6 -13 -1
-33 -5 -46 -9 -22 -7 -22 -6 -10 20 10 23 10 29 -5 39 -12 10 -16 25 -13 69 2
31 0 61 -4 68 -13 20 -32 -1 -26 -27 4 -13 4 -24 1 -24 -16 0 -68 61 -70 82
-2 34 -42 52 -97 44 -30 -5 -48 -13 -52 -24 -8 -24 -36 -71 -68 -112 -16 -22
-29 -53 -32 -85 -8 -60 -21 -124 -31 -147 -6 -15 0 -17 50 -16 36 1 59 6 64
15 5 10 16 12 34 8 35 -9 35 -23 0 -27 -26 -3 -28 -7 -29 -47 -1 -24 -7 -46
-12 -50 -14 -9 -33 -95 -26 -118 4 -12 -3 -9 -20 10 -28 31 -32 57 -15 106 6
17 8 39 4 49 -6 16 -7 16 -16 0 -14 -25 -31 -22 -59 7 -26 28 -61 32 -80 10
-16 -19 -30 -19 -66 0 -25 13 -30 13 -46 -2 -10 -9 -18 -22 -18 -30 0 -8 -12
-13 -30 -13 -38 0 -40 22 -5 54 13 13 31 36 40 52 8 16 15 22 15 14 0 -32 135
-55 146 -25 6 14 9 14 30 0 24 -16 33 -8 13 12 -7 7 -9 30 -4 65 3 29 6 72 7
96 0 23 4 42 9 42 5 0 9 9 9 20 0 13 7 20 19 20 14 0 21 10 25 35 4 20 16 41
26 48 29 17 24 24 -12 20 -43 -6 -77 -23 -90 -46 -5 -10 -13 -55 -18 -100 -6
-66 -12 -85 -30 -99 -12 -10 -27 -15 -32 -12 -10 6 -9 22 8 187 9 78 -6 107
-55 107 -36 0 -34 -15 4 -22 15 -3 19 -10 17 -28 -10 -84 -16 -107 -31 -124
-11 -12 -16 -38 -17 -77 0 -33 -3 -62 -7 -65 -7 -7 -14 50 -24 193 l-8 113
-135 5 c-74 3 -152 10 -174 16 -46 12 -68 6 -59 -17 7 -19 -41 -69 -58 -59 -6
4 -7 19 -4 36 6 25 -3 37 -19 27 -2 -2 -13 5 -24 16 -16 14 -33 17 -72 15 -47
-4 -51 -2 -57 20 -5 22 -9 23 -58 17 -33 -4 -69 -1 -100 8 -26 8 -77 18 -113
21 -81 8 -128 21 -165 48 -16 11 -43 23 -60 27 -18 4 -39 11 -49 15 -14 5 -16
-1 -16 -41 1 -32 -4 -51 -15 -59 -8 -6 -19 -23 -22 -38 -4 -15 -11 -27 -16
-27 -13 0 -11 69 5 129 10 38 10 54 2 56 -6 2 -40 13 -76 25 -101 33 -152 40
-171 24 -22 -20 -25 -18 -43 21 -15 31 -21 35 -56 35 -23 0 -68 13 -106 30
-50 23 -78 30 -113 28 -44 -3 -46 -5 -55 -40 -10 -42 -26 -51 -26 -15 0 40
-29 58 -57 35 -14 -11 -15 -10 -9 10 6 16 3 22 -8 22 -9 0 -25 9 -36 20 -23
23 -40 26 -41 8 0 -7 -4 -4 -9 8 -9 23 -46 34 -110 34 -47 0 -90 -39 -65 -60
20 -17 19 -46 -5 -99 -11 -23 -18 -47 -15 -51 3 -4 -2 -13 -10 -20 -8 -7 -15
-19 -15 -26 0 -8 -4 -14 -9 -14 -17 0 -21 -48 -6 -76 17 -33 19 -44 6 -44 -5
0 -11 9 -14 20 -7 28 -19 25 -39 -11 -23 -40 -23 -51 3 -72 11 -10 18 -21 14
-25 -4 -4 -12 0 -19 10 -6 9 -23 16 -36 15 -14 0 -51 3 -82 7 -40 5 -58 4 -58
-3 0 -13 -45 -13 -75 -2 -17 7 -16 9 12 15 18 4 33 11 33 15 0 4 10 13 23 19
19 10 15 11 -23 6 -24 -4 -51 -10 -60 -14 -8 -4 -28 -13 -45 -20 -63 -26 -74
-33 -72 -44 1 -6 -7 -10 -18 -9 -30 3 -85 -45 -106 -91 -10 -23 -31 -53 -46
-68 -26 -25 -32 -27 -59 -16 -48 18 -84 2 -145 -62 -54 -58 -119 -169 -119
-204 0 -10 9 -20 20 -23 25 -7 25 -25 0 -48 -11 -10 -20 -28 -20 -41 0 -13 -5
-26 -10 -29 -5 -3 -10 3 -10 13 0 22 -18 32 -60 32 -24 0 -42 -17 -117 -107
-85 -103 -123 -152 -274 -356 -65 -86 -124 -184 -98 -159 23 21 30 13 12 -15
-24 -39 -23 -39 -32 -24 -6 9 -16 2 -38 -26 -46 -60 -193 -290 -193 -304 0 -6
-20 -54 -45 -106 -24 -52 -46 -102 -47 -111 -2 -9 -12 -22 -23 -27 -25 -13
-33 -45 -11 -45 9 0 16 -8 16 -20 0 -16 -5 -19 -23 -15 -27 6 -44 -7 -80 -63
-30 -46 -34 -63 -48 -187 -8 -78 -11 -93 -43 -205 -9 -30 -21 -74 -27 -98 -9
-35 -15 -42 -32 -40 -16 2 -22 -4 -27 -28 -10 -47 -18 -55 -47 -48 -18 5 -24
3 -19 -5 4 -6 13 -11 21 -11 14 0 25 -21 25 -50 0 -17 -19 -31 -43 -29 -7 0
-2 4 11 10 13 5 21 13 17 18 -3 6 -12 8 -20 4 -9 -3 -15 1 -15 11 0 9 -5 16
-11 16 -6 0 -10 -10 -9 -22 4 -48 0 -54 -21 -29 -11 13 -23 20 -27 16 -4 -4
-1 -10 5 -12 24 -9 13 -29 -55 -105 -37 -42 -76 -92 -86 -111 l-19 -35 31 -65
c26 -54 38 -68 67 -78 43 -16 46 -30 6 -26 -32 4 -61 23 -61 40 0 10 -50 61
-55 55 -1 -2 -16 -28 -32 -58 -17 -30 -39 -69 -49 -87 -23 -39 -17 -46 24 -32
19 6 32 18 34 31 6 44 25 31 57 -36 2 -5 -3 -7 -11 -4 -8 4 -20 -2 -26 -13
-13 -21 -52 -25 -83 -9 -22 13 -22 14 -37 -80 -6 -36 -14 -75 -18 -88 -5 -19
-2 -24 16 -29 22 -6 21 -6 -7 -29 -15 -13 -31 -23 -34 -24 -4 0 -5 29 -4 65 2
36 0 65 -5 65 -11 0 -59 -122 -64 -163 -3 -18 -5 -48 -5 -69 -1 -31 -5 -38
-30 -46 -31 -11 -71 -74 -71 -111 0 -11 -13 -42 -30 -68 -16 -26 -30 -51 -30
-55 0 -4 -10 -29 -23 -56 -12 -26 -29 -67 -37 -91 l-14 -44 37 -32 c24 -21 37
-41 37 -57 0 -46 21 -51 85 -22 51 23 66 26 137 22 48 -3 83 -10 88 -17 4 -7
7 -45 8 -84 0 -69 -1 -74 -40 -124 -29 -38 -48 -53 -67 -55 -14 0 -46 -2 -71
-3 -25 0 -57 -5 -72 -9 -15 -4 -60 -3 -100 2 -67 9 -75 8 -95 -11 -12 -11 -21
-24 -20 -30 1 -6 -3 -11 -10 -12 -7 0 -18 -6 -25 -12 -9 -10 -5 -13 21 -13 48
0 34 -24 -17 -28 -33 -2 -42 0 -42 12 0 40 -33 2 -45 -52 -5 -23 -3 -32 7 -32
8 0 7 -4 -4 -11 -10 -5 -18 -19 -18 -30 0 -11 -5 -29 -10 -39 -8 -14 -5 -28
10 -55 l20 -35 -23 0 c-64 0 -94 -59 -249 -490 l-31 -84 19 -35 c23 -44 51
-51 76 -20 l18 24 -2 -49 c-1 -31 3 -51 10 -54 6 -2 22 -12 34 -22 25 -20 23
-22 -35 -34 -16 -4 -31 -16 -37 -30 -13 -34 -38 -41 -46 -11 -16 66 -94 69
-126 4 -19 -38 -73 -177 -113 -289 -15 -41 -30 -84 -35 -95 -19 -45 -61 -167
-96 -275 -20 -63 -41 -122 -45 -130 -27 -49 -157 -418 -169 -482 -5 -29 -4
-38 6 -38 7 0 17 -6 21 -13 4 -8 16 -17 26 -20 18 -7 21 -39 3 -37 -5 1 -12
-3 -15 -8 -3 -6 -20 -12 -38 -15 -41 -6 -49 -12 -56 -37 -5 -21 7 -28 18 -10
4 7 12 7 25 0 15 -8 18 -19 16 -53 -2 -23 -6 -49 -9 -57 -12 -28 -16 -100 -6
-100 16 0 24 5 21 13 -1 5 9 22 23 39 26 31 32 48 16 48 -6 0 -3 12 5 28 17
33 18 54 2 70 -8 8 -8 15 2 27 34 41 86 -11 75 -75 l-7 -40 42 0 c27 0 40 4
39 13 -5 44 2 65 26 71 37 9 40 6 40 -49 0 -27 4 -56 9 -63 12 -19 1 -25 -21
-13 -24 12 -115 17 -131 7 -13 -8 -36 -48 -46 -83 -5 -17 -1 -24 23 -36 16 -8
40 -13 53 -10 14 3 31 -3 45 -16 12 -12 29 -21 38 -21 9 0 24 -4 34 -9 33 -18
46 3 44 71 -1 55 1 60 12 44 12 -16 14 -14 20 26 4 23 5 61 3 83 -3 38 -2 40
29 43 25 3 33 -1 38 -19 5 -14 3 -25 -3 -27 -8 -2 -8 -9 1 -23 9 -15 9 -21 0
-27 -7 -5 -13 -33 -14 -67 -1 -33 -6 -71 -11 -85 -12 -31 11 -50 59 -50 21 0
36 -6 39 -15 4 -8 18 -15 34 -15 16 0 30 -7 34 -15 4 -12 10 -13 25 -6 14 8
23 6 36 -9 10 -11 31 -20 47 -20 16 0 31 -6 34 -15 4 -8 16 -15 29 -15 12 0
28 -7 35 -15 7 -9 29 -15 54 -15 39 0 43 3 56 35 22 56 40 65 36 18 -5 -45 23
-83 61 -83 13 0 23 -6 23 -14 0 -19 22 -26 80 -26 27 0 51 -4 54 -9 3 -5 15
-7 25 -4 10 3 31 -3 45 -12 15 -10 29 -15 33 -12 3 4 19 -1 35 -9 16 -9 35
-13 42 -11 7 3 23 -1 36 -8 12 -7 31 -10 41 -8 10 3 28 -2 41 -11 12 -9 42
-16 66 -16 23 0 54 -7 67 -16 14 -9 34 -14 45 -11 11 3 22 2 25 -3 7 -11 77
-20 89 -11 11 8 45 18 93 25 52 9 133 90 167 168 26 58 24 67 -16 81 -23 8
-35 56 -17 68 21 13 93 11 107 -3 18 -18 15 -41 -13 -78 -27 -36 -33 -89 -15
-134 9 -26 85 -108 92 -100 3 2 30 -3 61 -11 42 -11 69 -12 107 -5 66 13 92
31 135 96 34 51 35 55 21 76 -23 32 -20 57 7 67 35 13 74 2 81 -22 5 -19 8
-20 17 -7 8 12 9 9 3 -10 -3 -14 -7 -25 -8 -26 -29 -12 -61 -44 -73 -72 -8
-20 -24 -49 -35 -65 -11 -15 -32 -52 -47 -82 -21 -42 -30 -52 -39 -43 -9 9
-16 8 -28 -4 -20 -20 -10 -62 13 -53 9 3 25 -1 37 -9 27 -17 132 -31 209 -27
32 2 63 -2 70 -8 7 -5 22 -10 32 -9 11 0 28 -3 37 -7 15 -6 18 -2 18 18 0 28
22 41 145 89 33 13 62 26 63 31 2 4 8 7 14 7 10 0 116 50 153 73 11 7 33 26
48 42 15 17 39 41 53 55 13 14 24 35 24 47 0 27 19 41 31 22 6 -11 12 -9 31 7
50 44 110 55 169 30 24 -10 39 -11 56 -3 23 10 31 27 13 27 -5 0 -10 5 -10 10
0 6 7 10 16 10 8 0 36 14 60 31 61 41 67 31 10 -17 -25 -21 -46 -47 -46 -57 0
-11 -13 -23 -35 -32 -26 -12 -37 -24 -46 -55 -18 -59 -50 -84 -112 -87 -70 -3
-140 -28 -212 -78 -58 -39 -141 -83 -230 -120 -22 -9 -53 -23 -68 -31 -16 -8
-35 -14 -43 -14 -8 0 -14 -5 -14 -10 0 -6 10 -8 24 -4 14 3 29 0 39 -10 8 -9
23 -13 31 -10 9 3 27 -1 41 -10 13 -9 33 -16 43 -16 10 0 27 -7 38 -15 10 -8
29 -15 41 -15 12 0 25 -4 28 -10 3 -5 17 -10 29 -10 13 0 29 -7 36 -15 7 -8
25 -15 41 -15 15 0 32 -7 37 -16 8 -14 13 -14 32 -4 19 10 24 10 32 -4 5 -8
24 -23 43 -32 19 -9 35 -20 35 -25 0 -5 15 -9 33 -9 17 0 54 -11 81 -24 27
-13 55 -22 61 -20 7 3 18 -2 25 -11 7 -8 23 -15 36 -15 12 0 26 -4 29 -10 3
-5 22 -10 41 -10 22 0 37 -6 40 -15 4 -10 13 -13 26 -9 10 3 24 1 31 -4 7 -5
30 -12 52 -16 22 -3 54 -8 70 -11 17 -3 41 -6 55 -6 14 0 32 -6 40 -14 8 -7
44 -13 80 -14 35 -1 67 -6 70 -11 6 -9 114 -22 177 -20 17 0 34 -4 38 -10 3
-5 30 -10 60 -10 30 0 57 -5 60 -10 4 -6 18 -10 33 -10 59 -1 98 -5 109 -13
17 -11 171 -21 154 -9 -14 10 -14 7 35 117 7 17 25 64 40 105 14 41 30 84 35
95 5 11 14 34 20 50 l12 30 8 -45 c22 -131 47 -246 58 -267 5 -10 14 -31 19
-48 6 -16 13 -38 17 -47 5 -13 2 -18 -9 -18 -9 0 -16 8 -16 18 -1 37 -37 58
-67 39 -7 -4 -27 -1 -45 6 -29 12 -35 12 -51 -4 -30 -28 -14 -59 31 -60 20 0
51 -2 67 -5 17 -2 47 -4 68 -3 20 0 37 -5 37 -11 0 -5 12 -10 26 -10 14 0 35
-5 46 -11 12 -6 44 -12 72 -13 28 -1 56 -5 63 -9 6 -4 18 -4 26 -1 9 3 26 0
39 -8 25 -14 33 -16 95 -22 23 -2 50 -9 61 -15 12 -6 32 -11 46 -11 14 0 26
-3 26 -7 0 -10 70 -9 127 1 31 6 43 4 50 -7 11 -19 50 -27 62 -13 7 8 4 16
-10 24 -16 10 -20 10 -25 -3 -6 -14 -8 -14 -23 -1 -9 9 -27 17 -39 19 -27 4
-36 13 -27 27 5 8 11 7 22 -2 13 -10 15 -9 11 7 -2 13 -10 19 -22 17 -10 -2
-25 0 -35 4 -9 4 -74 8 -146 10 -173 2 -175 3 -175 14 0 6 71 10 193 9 185 0
333 13 369 32 25 14 68 11 68 -4 0 -8 -9 -22 -19 -31 -10 -9 -21 -29 -24 -44
-3 -15 -9 -39 -13 -54 -5 -25 -3 -28 17 -29 13 0 32 -2 42 -4 9 -2 17 1 17 6
0 5 -7 9 -15 9 -34 0 -14 48 34 82 14 11 64 76 158 208 27 36 104 133 120 150
12 12 12 8 -1 -24 -25 -61 -21 -83 35 -189 21 -39 18 -57 -7 -57 -8 0 -14 -4
-14 -10 0 -5 -9 -10 -20 -10 -13 0 -20 -7 -20 -20 0 -20 -15 -28 -22 -11 -1 5
-15 7 -29 4 -21 -4 -25 -9 -21 -29 3 -19 9 -23 23 -19 15 5 19 1 19 -20 0 -16
-7 -28 -17 -31 -10 -3 -26 -10 -37 -15 -14 -8 -23 -5 -42 12 -13 12 -21 26
-17 32 3 5 0 8 -8 5 -8 -3 -15 -14 -17 -25 -4 -24 -46 -46 -73 -38 -11 4 -19
2 -19 -4 0 -6 7 -11 15 -11 8 0 15 -4 15 -10 0 -19 42 -10 47 10 7 25 25 26
48 0 29 -32 52 -34 87 -6 38 29 88 50 88 37 0 -5 -4 -11 -9 -13 -5 -1 -12 -18
-16 -35 -6 -30 -4 -33 17 -33 13 0 29 -5 36 -12 8 -8 15 -9 23 -1 7 7 6 15 -5
26 -15 14 -15 17 0 32 9 8 25 13 35 10 10 -3 28 -8 39 -11 22 -6 25 -25 10
-54 -8 -16 -4 -19 34 -24 24 -4 69 -9 101 -11 31 -2 62 -9 69 -14 7 -6 21 -8
33 -5 12 3 32 -1 44 -9 42 -27 134 -20 123 8 -6 16 1 20 44 30 28 6 32 4 29
-13 -2 -11 -8 -27 -15 -35 -10 -12 -8 -18 14 -31 14 -10 33 -15 41 -12 9 4 30
2 47 -3 17 -5 51 -15 76 -22 25 -7 54 -21 66 -31 11 -10 28 -18 37 -18 9 0 19
-5 22 -10 3 -6 19 -10 35 -10 16 0 32 -4 35 -10 3 -5 17 -10 30 -10 13 0 30
-7 39 -15 8 -8 26 -15 41 -15 31 0 48 -35 32 -65 -6 -11 -12 -22 -12 -25 -10
-40 -19 -72 -31 -103 -19 -50 -18 -54 10 -61 13 -3 26 -15 29 -26 3 -13 13
-20 30 -20 14 0 28 -7 31 -16 8 -22 68 -13 145 22 31 14 65 29 76 34 33 14
101 18 116 8 11 -8 10 -9 -4 -4 -11 3 -20 0 -23 -9 -4 -10 -15 -13 -37 -9 -24
4 -28 3 -17 -4 8 -6 17 -9 21 -6 4 2 9 -5 12 -16 6 -22 -5 -25 -35 -9 -34 18
-32 2 6 -43 20 -23 34 -48 32 -55 -3 -7 -1 -15 4 -18 15 -9 12 -25 -4 -25 -22
0 -27 -28 -7 -35 20 -6 45 -51 36 -65 -3 -5 -1 -11 4 -14 19 -12 111 109 162
213 28 59 73 138 99 176 138 205 257 416 245 435 -9 15 -40 12 -87 -9 -24 -11
-77 -32 -118 -46 -81 -28 -80 -28 -187 -91 -60 -36 -73 -41 -83 -29 -16 19 -7
40 22 58 13 8 66 41 118 73 53 33 122 68 155 79 33 11 63 24 68 30 4 6 10 5
15 -3 7 -9 26 5 74 53 72 72 84 72 90 0 3 -39 4 -39 15 -15 6 14 26 62 43 108
38 97 73 145 141 190 61 42 83 38 144 -22 48 -49 79 -105 118 -212 38 -107 66
-160 99 -193 20 -19 31 -42 35 -70 7 -55 32 -69 119 -70 97 0 124 6 124 30 0
16 -4 19 -21 14 -17 -6 -20 -4 -15 13 4 11 1 24 -6 30 -14 11 -17 12 -50 12
-21 0 -23 4 -21 47 2 50 22 77 76 101 81 36 140 -20 162 -153 5 -27 7 -56 6
-62 -2 -15 45 -18 54 -3 3 5 16 10 28 10 39 -1 86 12 98 26 6 8 24 14 40 14
16 0 29 5 29 10 0 6 13 10 29 10 17 0 33 5 36 10 3 6 17 10 30 10 13 0 26 4
29 9 3 5 23 11 43 14 21 3 56 10 78 17 22 6 51 13 65 14 14 1 32 5 40 8 8 4
29 9 45 12 62 10 91 19 106 33 9 7 30 12 47 11 16 -1 36 3 44 9 7 6 29 13 48
16 62 10 94 20 109 34 8 8 23 12 36 9 14 -4 28 0 35 9 7 8 20 15 30 15 26 0
80 30 80 45 0 7 12 15 28 18 64 13 87 21 94 30 3 6 22 11 42 11 19 1 38 5 42
9 4 4 17 7 28 7 26 1 70 36 61 50 -3 5 -1 10 4 10 6 0 11 -9 11 -20 0 -18 4
-20 43 -14 23 4 49 13 58 20 8 8 27 14 42 14 14 0 29 5 32 10 3 6 18 10 33 10
15 0 38 9 51 19 14 10 31 17 38 14 22 -9 26 25 13 103 -11 63 -16 74 -32 74
-17 0 -19 -5 -16 -37 3 -21 8 -46 12 -55 5 -11 4 -18 -2 -18 -16 0 -35 102
-21 110 14 9 -10 50 -30 50 -11 0 -11 -3 -1 -15 10 -12 8 -16 -13 -24 -14 -5
-28 -14 -31 -19 -3 -5 -18 -7 -33 -4 -27 5 -27 5 -4 14 19 7 21 11 11 23 -15
18 -20 18 -44 0 -15 -12 -17 -17 -7 -29 14 -17 6 -37 -12 -35 -26 3 -35 -2
-40 -21 -3 -10 2 -25 10 -31 18 -15 14 -87 -5 -108 -7 -7 -11 -20 -8 -27 3 -8
1 -14 -4 -14 -6 0 -10 6 -10 14 0 18 -20 26 -41 15 -18 -9 -15 -19 -63 181
-24 103 -68 259 -81 291 -8 21 13 29 43 18 13 -5 22 -17 22 -29 0 -11 5 -20
10 -20 6 0 10 -16 10 -36 0 -33 2 -35 28 -32 25 3 27 6 24 43 -2 22 -7 47 -12
55 -9 18 -2 40 12 40 24 0 84 -110 74 -135 -3 -9 3 -19 14 -25 16 -9 18 -15
10 -30 -7 -13 -7 -20 -1 -20 6 0 8 -7 5 -15 -5 -11 1 -15 19 -15 19 0 26 6 31
31 3 17 1 40 -5 51 -6 11 -8 22 -5 25 2 3 1 16 -4 29 -7 17 -5 27 6 39 17 17
54 20 54 5 0 -5 -4 -10 -9 -10 -10 0 -9 -26 2 -36 4 -4 7 -17 7 -30 0 -17 4
-21 20 -17 15 4 20 0 20 -16 0 -11 -4 -21 -10 -21 -5 0 -10 -4 -10 -9 0 -5 8
-7 19 -4 12 3 20 -2 24 -16 3 -12 9 -21 14 -21 12 0 4 58 -8 66 -5 3 -9 18 -9
34 0 16 -4 31 -10 35 -5 3 -7 12 -4 20 3 8 2 20 -3 27 -4 7 -8 22 -9 33 0 11
-3 29 -7 40 -17 52 44 54 62 3 6 -17 11 -41 11 -54 0 -13 5 -26 10 -29 6 -3
10 -17 10 -30 0 -13 4 -26 8 -29 5 -3 12 -57 16 -121 6 -122 23 -205 41 -205
5 0 19 7 29 15 11 8 27 13 37 10 9 -3 22 1 29 10 7 8 23 15 35 15 12 0 28 7
35 15 7 8 22 15 35 15 12 0 30 9 40 20 10 11 28 20 39 20 18 0 17 2 -8 15 -35
19 -40 19 -32 0 10 -27 -12 -16 -35 18 -13 17 -27 35 -32 38 -6 4 -7 16 -5 27
4 15 2 19 -9 15 -12 -5 -14 0 -8 25 5 25 4 31 -7 27 -11 -4 -13 3 -10 30 3 23
0 35 -8 35 -9 0 -10 10 -6 34 5 26 3 37 -8 43 -24 13 -10 81 18 85 14 2 24 14
31 36 6 20 14 31 22 28 20 -8 48 5 33 14 -7 4 -9 13 -6 19 10 16 26 13 26 -5
0 -11 5 -14 18 -9 32 14 92 22 92 13 0 -5 -7 -11 -15 -14 -16 -7 -21 -34 -5
-34 5 0 15 10 21 22 6 13 13 24 14 26 5 6 60 -23 72 -38 7 -8 13 -25 13 -36 0
-12 7 -35 15 -50 l15 -29 0 27 c0 15 -5 39 -12 53 -8 17 -8 29 -1 36 10 10 53
-102 53 -141 0 -10 5 -22 10 -25 6 -3 10 -17 10 -30 0 -13 5 -27 10 -30 11 -7
14 -64 4 -89 -3 -8 -12 -12 -20 -9 -15 6 -20 -12 -5 -21 8 -5 60 9 93 25 10 5
25 9 35 9 9 0 34 8 54 18 31 14 39 22 39 45 0 15 -4 27 -10 27 -5 0 -10 11
-10 24 0 14 -4 28 -10 31 -5 3 -10 15 -10 27 0 34 -33 158 -42 158 -4 0 -8 9
-8 21 0 11 -5 30 -11 41 -16 29 13 58 40 41 22 -14 61 -6 61 12 0 15 22 25 55
25 12 0 39 7 58 15 49 20 84 19 92 -2 10 -28 87 -90 92 -75 3 6 12 12 20 12 9
0 13 -6 10 -14 -4 -9 2 -17 14 -21 11 -4 22 -19 26 -36 3 -16 12 -34 19 -40 8
-6 14 -17 14 -24 0 -7 9 -24 20 -38 14 -18 19 -34 14 -51 -6 -25 -4 -26 32
-26 22 0 58 7 81 15 43 15 159 36 223 40 19 1 35 3 35 4 0 1 29 4 64 6 35 2
69 9 74 14 6 6 26 11 43 11 18 0 36 5 39 10 4 6 16 8 26 5 11 -4 26 -2 34 5 7
6 42 13 76 16 35 3 68 9 74 13 9 8 47 16 112 25 13 1 26 6 30 9 3 4 19 7 33 7
15 0 33 6 39 14 14 17 118 36 198 36 12 0 25 5 28 10 3 6 21 10 40 10 19 0 36
4 39 9 3 5 20 11 38 14 18 3 51 11 73 17 22 7 52 13 68 14 15 2 30 6 34 9 3 4
19 7 34 7 15 0 31 5 34 10 3 6 19 10 35 10 15 0 30 7 34 15 3 9 18 15 35 15
16 0 33 4 36 10 3 6 19 10 35 10 16 0 32 5 35 10 3 6 22 10 41 10 19 0 34 4
34 8 0 4 14 12 32 17 17 6 34 17 36 25 4 12 2 13 -9 3 -26 -25 -74 -12 -215
59 l-143 72 -53 -27 c-29 -15 -57 -27 -62 -27 -5 0 -17 -6 -25 -14 -19 -16
-65 -28 -74 -20 -3 4 1 17 10 30 14 22 14 24 -1 24 -19 0 -21 11 -4 28 18 18
3 25 -21 10 -18 -11 -22 -10 -35 7 -12 16 -11 23 5 51 9 18 15 34 13 37 -3 3
3 28 12 57 16 50 16 53 0 62 -35 20 -196 171 -196 185 0 7 7 16 15 19 8 4 15
15 15 26 0 11 5 18 13 15 7 -2 11 -17 9 -35 -4 -39 10 -41 44 -7 27 27 46 33
42 13 -2 -8 6 -12 22 -10 39 4 103 2 112 -4 5 -3 4 -11 -1 -18 -8 -10 -4 -16
14 -24 14 -6 25 -16 25 -22 0 -5 6 -10 14 -10 8 0 16 -6 19 -14 3 -8 15 -12
31 -9 21 4 24 2 19 -16 -3 -12 -10 -21 -16 -21 -6 0 -8 -3 -5 -6 4 -3 15 -1
27 5 13 7 22 8 26 1 3 -5 2 -10 -3 -10 -5 0 -12 -8 -16 -17 -3 -10 -9 -24 -12
-32 -5 -11 3 -13 45 -9 45 5 51 3 51 -14 0 -11 4 -17 9 -14 5 3 14 -1 21 -9 8
-9 21 -13 35 -9 13 3 26 1 29 -5 4 -6 29 -11 56 -11 38 0 48 -3 44 -14 -3 -7
8 -35 25 -62 75 -121 101 -173 101 -197 0 -20 5 -27 19 -27 11 0 23 5 26 10 3
6 14 10 24 10 10 0 24 7 31 15 7 9 20 13 27 10 8 -2 24 0 36 7 12 7 29 12 37
12 30 2 60 30 60 58 0 16 4 28 8 28 5 0 15 11 22 25 9 17 22 25 40 25 14 0 30
4 35 9 6 5 35 5 70 -1 98 -16 99 -15 105 12 21 87 88 160 148 160 22 0 41 -12
74 -45 44 -44 44 -44 61 -24 12 14 24 18 38 14 13 -4 27 0 39 10 10 9 25 17
33 19 8 1 21 7 29 13 7 6 25 14 40 18 15 4 29 13 32 21 3 8 15 14 26 14 12 0
36 15 54 34 l32 35 -43 12 c-24 6 -46 16 -49 20 -3 5 -13 9 -23 9 -20 0 -142
62 -180 91 -33 26 -98 43 -152 40 -40 -2 -52 2 -82 28 -19 17 -38 42 -41 55
-3 14 -20 30 -41 40 -19 9 -35 21 -35 26 0 5 -14 25 -31 45 -35 40 -35 40 13
21 22 -10 39 -11 49 -5 22 13 65 11 78 -5 7 -8 25 -14 41 -14 30 1 100 -28
100 -41 0 -4 10 -7 22 -7 18 1 24 -7 31 -42 4 -23 12 -40 18 -37 5 4 15 -6 21
-21 10 -22 10 -28 0 -32 -16 -5 -16 -24 1 -20 6 1 38 -15 69 -35 32 -21 71
-40 88 -43 16 -4 35 -13 41 -20 6 -8 17 -14 24 -14 7 0 32 -9 56 -20 53 -24
95 -26 103 -5 3 8 17 20 31 25 14 5 25 14 25 20 0 5 11 10 25 10 14 0 25 4 25
10 0 5 11 12 25 16 14 3 25 12 25 20 0 8 10 14 25 14 13 0 28 6 32 14 4 8 28
24 53 37 25 13 47 26 50 29 3 4 23 15 45 25 71 31 84 38 104 57 11 10 25 18
30 18 15 0 51 17 96 45 22 14 49 29 60 34 12 5 27 16 34 25 7 9 21 16 31 16 9
0 25 9 35 20 10 11 30 20 45 20 15 0 34 8 44 19 16 17 13 24 -52 137 -38 65
-73 128 -79 139 -6 11 -18 36 -29 55 -48 91 -52 105 -41 119 9 11 14 10 25 -7
8 -12 25 -33 38 -49 13 -15 24 -35 24 -44 0 -9 6 -19 13 -22 8 -3 20 -26 27
-51 18 -66 35 -76 67 -42 l26 28 -23 47 c-12 25 -35 65 -51 89 -16 24 -29 47
-29 53 0 5 -5 18 -12 29 -18 29 -3 35 28 11 15 -11 33 -21 40 -21 8 0 17 -12
20 -27 4 -16 12 -34 17 -42 17 -20 35 -53 48 -84 9 -22 16 -26 32 -21 17 5 19
3 12 -12 -4 -11 -10 -29 -13 -42 -3 -18 -9 -22 -23 -18 -11 3 -28 9 -39 12
-15 5 -22 0 -30 -21 -17 -46 -12 -62 28 -82 22 -12 38 -28 40 -41 4 -27 -6
-28 -24 -4 -9 11 -13 13 -14 4 0 -22 23 -38 54 -38 16 1 31 7 34 14 2 6 18 12
37 12 18 0 38 7 45 15 7 8 25 15 40 15 15 0 33 7 40 15 7 8 21 15 32 15 11 0
33 9 49 21 l30 21 -26 25 c-14 14 -25 29 -25 34 0 4 -7 15 -16 24 -13 13 -19
14 -25 4 -12 -21 -22 -3 -25 44 -2 40 -49 140 -98 211 -21 30 -25 111 -7 129
8 8 11 6 11 -6 0 -15 4 -16 20 -7 11 6 20 7 20 2 0 -5 -10 -14 -22 -20 -13 -6
-17 -11 -11 -11 18 -1 63 -42 63 -58 0 -7 4 -13 9 -13 5 0 12 -11 15 -25 4
-14 13 -25 21 -25 14 0 19 -11 16 -36 -1 -6 8 -19 19 -29 11 -10 20 -26 20
-36 0 -30 42 -98 56 -92 8 3 14 -1 14 -10 0 -8 5 -17 11 -19 9 -3 9 -10 0 -26
-10 -18 -9 -23 4 -28 15 -6 29 -2 94 29 40 20 47 41 23 71 -19 25 -102 187
-102 200 0 3 -11 30 -25 60 -36 79 -46 107 -51 141 -8 53 -104 268 -144 320
-4 6 -19 30 -32 55 -21 36 -113 199 -238 415 -118 206 -222 385 -290 500 -45
77 -90 154 -100 170 -33 57 -227 380 -310 515 -46 74 -103 168 -127 209 -44
74 -239 381 -517 814 -80 126 -146 231 -146 233 0 2 -59 98 -131 212 -72 114
-140 222 -151 241 -46 81 -193 305 -224 342 -19 23 -34 45 -34 49 0 8 -132
219 -246 393 -58 89 -103 134 -112 109 -2 -6 -8 -12 -14 -12 -8 0 -6 17 9 58
3 6 0 12 -7 12 -6 0 -8 -4 -5 -10 3 -5 1 -10 -5 -10 -8 0 -10 9 -6 25 4 14 2
25 -3 25 -5 0 -17 24 -27 53 -20 60 -32 82 -124 232 -67 110 -84 138 -201 339
-74 125 -197 260 -267 290 l-43 19 -47 -46 c-37 -36 -55 -47 -79 -47 -42 0
-99 50 -113 98 -19 69 -13 92 35 143 44 48 60 87 30 75 -10 -4 -15 1 -15 14 0
11 -11 27 -25 36 -14 9 -25 21 -25 28 -1 16 -58 79 -103 115 -33 26 -42 28
-58 18 -26 -16 -48 -1 -64 46 -7 20 -18 44 -26 53 -24 29 -99 66 -163 79 -55
12 -72 11 -122 -1 l-57 -15 -46 44 c-82 79 -198 147 -251 147 -16 0 -30 4 -30
8 0 5 -12 14 -26 21 -23 10 -29 9 -52 -14 -32 -32 -36 -27 -16 20 12 29 13 44
5 59 -6 12 -19 47 -30 79 -41 119 -93 181 -174 204 -35 10 -41 9 -89 -24z
m-589 -930 c17 -20 36 -48 43 -62 26 -52 63 -100 81 -105 9 -2 17 -11 17 -20
0 -22 -16 -20 -32 3 -11 16 -21 17 -68 11 -30 -4 -57 -6 -59 -4 -2 2 1 25 7
52 10 42 9 49 -9 62 -11 9 -21 31 -24 49 -2 19 -9 39 -14 44 -6 6 -11 15 -11
19 0 16 38 -11 69 -49z m1567 -58 c46 -19 123 -68 124 -78 0 -4 -11 -24 -25
-45 -19 -29 -24 -52 -26 -102 0 -36 2 -72 6 -81 8 -21 -14 -36 -26 -18 -6 11
-12 6 -21 -19 -8 -20 -22 -35 -35 -38 -13 -4 -23 -11 -23 -16 0 -6 -9 -8 -20
-5 -22 6 -27 -12 -8 -31 6 -6 8 -15 4 -19 -4 -4 -10 -3 -14 2 -8 12 -64 39
-111 54 -51 16 -118 13 -191 -9 -79 -24 -186 -35 -220 -22 -24 9 -23 10 15 16
52 9 112 43 139 79 16 22 21 43 21 88 -1 32 -6 64 -13 71 -14 14 -16 28 -4 28
12 0 42 -56 42 -79 0 -24 18 -28 26 -6 10 26 24 16 24 -17 0 -25 -3 -29 -10
-18 -9 13 -11 13 -20 0 -17 -27 -11 -40 19 -40 18 0 34 8 44 23 9 12 30 37 46
56 17 18 31 39 31 45 0 7 15 27 34 45 30 29 39 33 69 27 43 -8 63 -47 52 -102
-5 -28 -3 -35 7 -30 7 3 21 9 31 12 9 4 17 14 17 24 0 30 -30 90 -47 97 -25
10 -53 36 -53 50 0 6 10 19 21 27 13 9 19 21 16 30 -8 21 31 21 79 1z m-7806
-136 c31 -10 71 -27 93 -37 4 -2 7 5 8 15 0 14 2 14 6 3 10 -25 30 -40 54 -40
26 0 59 -26 59 -47 0 -19 41 -33 63 -21 14 7 29 3 60 -18 23 -15 50 -27 59
-27 9 1 22 -5 29 -13 6 -8 23 -14 37 -14 14 0 33 -7 43 -16 10 -9 37 -18 59
-19 59 -5 90 -28 90 -68 0 -46 -12 -59 -51 -55 -30 3 -34 7 -37 36 -3 26 -7
32 -27 32 -14 0 -29 9 -35 21 -11 20 -12 20 -25 2 -8 -10 -15 -24 -15 -31 0
-7 -7 -29 -16 -50 -9 -20 -17 -48 -19 -62 -6 -64 -18 -110 -27 -110 -11 0 -5
150 7 210 18 85 17 98 -4 105 -11 3 -29 1 -40 -4 -15 -8 -20 -7 -26 7 -5 14
-9 11 -22 -16 -21 -43 -37 -41 -29 2 6 29 3 35 -14 41 -11 4 -29 16 -40 27
-16 18 -22 19 -35 8 -14 -12 -20 -9 -42 18 -13 18 -33 32 -44 32 -11 0 -19 7
-19 16 0 12 -6 15 -25 10 -19 -5 -25 -2 -25 10 0 12 -7 15 -30 12 -16 -3 -30
-2 -30 1 0 3 -11 11 -25 18 -25 11 -25 11 -25 -35 0 -58 -11 -80 -29 -58 -12
14 -9 35 16 119 5 19 8 19 73 -4z m5635 -303 c20 -26 35 -49 33 -51 -2 -2 -17
-6 -33 -9 -17 -3 -24 -3 -17 0 15 7 16 24 1 24 -6 0 -26 12 -44 26 -31 23 -36
24 -50 10 -15 -15 -37 -13 -62 6 -7 6 -23 4 -41 -6 -29 -15 -30 -15 -36 10 -4
14 -11 22 -15 19 -5 -3 -20 -1 -33 4 -21 8 -20 9 17 20 23 6 66 8 101 5 35 -4
69 -2 79 3 26 15 57 -4 100 -61z m-2938 -28 c-22 -42 -23 -43 -70 -41 -26 2
-47 0 -47 -3 0 -19 43 -144 50 -144 12 0 20 -28 14 -44 -13 -34 -114 -26 -114
9 0 16 15 20 24 6 3 -5 15 -11 27 -14 15 -4 19 -2 15 9 -3 8 1 14 9 14 20 0
19 16 -4 37 -10 10 -22 28 -25 41 -4 12 -12 22 -17 22 -5 0 -9 9 -9 20 0 11
-5 20 -11 20 -6 0 -17 7 -25 15 -11 11 -21 12 -33 5 -17 -9 -77 -5 -111 7 -36
13 135 55 215 54 28 -1 61 5 75 13 14 8 33 14 42 15 15 1 15 -4 -5 -41z m2501
-156 c222 -244 226 -248 310 -273 24 -7 49 -21 57 -32 13 -18 18 -19 93 -7 22
3 -113 140 -139 140 -25 0 -2 32 62 91 74 67 135 109 157 109 7 0 17 -12 22
-26 20 -52 81 -174 91 -179 16 -11 10 -25 -11 -25 -12 0 -32 -11 -46 -25 -14
-14 -31 -22 -39 -19 -12 5 -11 10 7 30 13 13 28 24 34 24 7 0 15 7 18 16 5 13
-1 15 -37 13 -24 -2 -48 0 -54 4 -11 7 -26 -7 -36 -35 -4 -10 -14 -18 -22 -18
-10 0 -13 -4 -8 -12 4 -7 8 -19 9 -25 1 -7 9 -20 18 -28 12 -13 13 -21 6 -36
-6 -10 -16 -19 -22 -19 -6 0 -5 -6 3 -16 12 -15 11 -16 -9 -10 -21 7 -22 6
-10 -13 12 -19 14 -19 36 -5 29 19 45 8 18 -12 -19 -14 -19 -15 9 -44 31 -32
55 -39 55 -16 0 19 26 27 39 12 6 -7 8 -16 5 -19 -4 -3 10 -3 30 0 24 4 36 2
36 -6 0 -10 -20 -16 -42 -12 -5 0 -8 -4 -8 -9 0 -7 -6 -7 -19 0 -38 20 -30 -7
16 -56 25 -27 50 -61 55 -76 5 -15 17 -30 26 -32 10 -3 23 -18 30 -33 7 -16
35 -52 62 -82 45 -49 64 -91 41 -91 -5 0 -16 -2 -23 -5 -9 -4 -17 6 -23 26 -6
18 -19 37 -30 43 -10 6 -28 21 -38 34 -10 12 -34 39 -53 59 -19 20 -34 42 -34
49 0 8 -9 14 -20 14 -11 0 -20 5 -20 10 0 6 -9 10 -20 10 -11 0 -20 7 -20 16
0 8 4 12 10 9 6 -3 7 1 4 9 -7 19 -25 21 -42 4 -9 -9 -12 -9 -12 0 0 7 -4 12
-10 12 -5 0 -10 -7 -10 -15 0 -9 9 -15 24 -15 25 0 36 -16 36 -56 0 -13 5 -24
10 -24 6 0 15 -11 20 -25 5 -14 15 -25 21 -25 8 0 8 -4 -1 -15 -7 -8 -23 -15
-35 -15 -13 0 -25 7 -29 15 -3 8 -15 15 -27 15 -16 0 -19 4 -14 18 16 39 17
52 3 52 -8 0 -19 -5 -26 -12 -13 -13 -16 -5 -13 37 1 11 -13 37 -31 57 -18 20
-45 52 -60 71 -35 45 -84 68 -116 56 -23 -9 -24 -8 -20 21 4 25 1 30 -16 30
-12 0 -27 -4 -35 -9 -11 -7 -8 -14 13 -32 32 -28 33 -41 4 -37 -15 2 -24 11
-26 26 -2 13 -8 20 -15 15 -6 -3 -1 9 11 29 28 45 28 60 0 56 -24 -4 -68 36
-68 60 0 7 -4 11 -9 7 -5 -3 -12 -1 -16 5 -3 5 -20 7 -36 3 -21 -4 -34 -1 -40
8 -15 23 -11 26 30 23 38 -3 40 -1 51 32 15 45 6 84 -20 84 -27 0 -73 -22 -88
-42 -7 -10 -17 -18 -23 -18 -15 0 -10 22 9 36 16 13 16 13 0 14 -11 0 -17 7
-16 18 3 41 -2 61 -16 56 -10 -4 -16 5 -21 27 -7 32 -38 95 -56 114 -5 5 -9
15 -9 22 0 28 73 -23 148 -105z m-3010 78 c4 0 7 -36 7 -79 0 -44 3 -82 6 -85
3 -3 20 -1 37 5 28 10 30 13 24 47 -10 60 -8 77 8 77 11 0 16 -14 20 -50 5
-46 7 -51 39 -61 33 -11 33 -11 10 -19 -20 -7 -17 -9 26 -15 46 -6 47 -7 12
-8 -23 -1 -40 -8 -43 -17 -4 -8 -15 -15 -26 -15 -14 0 -18 -5 -14 -16 3 -9 2
-12 -5 -9 -5 4 -7 15 -4 24 7 23 -31 41 -62 30 -23 -8 -41 -48 -26 -58 13 -8
26 -61 15 -61 -4 0 -18 20 -32 45 -23 43 -40 57 -40 34 0 -5 -5 -7 -12 -3 -7
4 -8 3 -4 -4 4 -6 13 -9 21 -6 10 4 12 0 8 -16 -3 -13 0 -25 7 -30 17 -10 19
-52 3 -67 -16 -18 -23 -16 -23 5 0 14 -2 15 -10 2 -7 -11 -10 -6 -10 22 0 40
-19 63 -22 26 -2 -36 -2 -41 6 -66 18 -56 -56 19 -99 100 -6 11 -18 18 -30 16
-16 -2 -20 -10 -19 -38 1 -19 4 -50 9 -67 6 -27 5 -33 -9 -33 -18 0 -21 -11
-5 -27 7 -7 2 -17 -18 -32 -15 -11 -34 -26 -40 -31 -10 -8 -13 -7 -13 5 0 19
-5 19 -33 0 -25 -16 -140 -35 -202 -33 -30 1 -33 2 -12 5 16 3 27 11 27 20 0
13 8 14 39 9 36 -6 67 7 39 16 -7 3 -8 10 -3 17 5 9 20 12 47 8 27 -4 38 -2
35 6 -2 7 -16 13 -30 15 -41 5 -32 21 11 21 20 0 46 1 57 3 14 2 21 -3 23 -19
2 -15 10 -23 23 -23 22 0 25 18 5 45 -7 11 -17 35 -21 53 -4 18 -23 65 -42
103 -30 60 -34 75 -24 95 13 29 27 31 41 4 6 -11 16 -17 22 -14 25 15 79 14
104 -3 26 -17 27 -16 50 10 13 15 33 27 47 27 13 0 24 6 24 14 0 8 -8 11 -19
8 -16 -4 -18 -1 -12 24 12 50 51 79 92 68 8 -2 17 -4 20 -4z m2028 -15 c-2 -7
4 -25 15 -41 25 -38 24 -54 -4 -54 -36 0 -63 -38 -77 -108 -7 -34 -16 -65 -21
-67 -4 -3 -17 9 -29 25 -18 25 -21 38 -15 68 4 20 9 58 10 83 1 25 6 53 11 61
13 21 44 31 44 14 0 -19 25 -27 39 -13 17 17 13 27 -10 27 -17 0 -19 3 -10 14
14 16 54 9 47 -9z m2564 -13 c0 -10 -4 -22 -10 -28 -15 -15 -1 -51 26 -63 31
-14 30 -23 -3 -38 -137 -59 -151 -63 -114 -32 13 11 21 23 17 26 -4 4 -11 1
-16 -7 -7 -12 -11 -12 -25 0 -13 11 -18 11 -24 2 -7 -12 -111 -30 -111 -20 0
3 18 18 40 33 47 33 50 49 13 87 -14 15 -24 31 -21 34 4 3 31 -1 61 -10 73
-21 84 -20 119 9 35 30 48 32 48 7z m-630 -164 c37 -83 145 -222 166 -214 7 3
9 -5 6 -20 -3 -16 1 -26 12 -30 9 -3 16 -11 16 -17 0 -6 7 -19 16 -29 16 -16
15 -18 -1 -24 -11 -5 -22 -1 -29 7 -22 30 -44 29 -65 0 l-20 -28 22 -33 c53
-81 58 -93 48 -103 -13 -13 -51 20 -77 69 -10 18 -24 34 -30 34 -7 0 -10 8 -7
19 4 16 1 19 -16 14 -25 -6 -25 -3 -7 42 15 35 46 48 46 20 0 -8 -8 -15 -17
-15 -16 0 -16 -1 0 -17 17 -17 19 -16 42 12 30 37 30 43 1 79 -14 16 -22 35
-19 43 4 10 0 13 -11 11 -12 -2 -26 11 -42 41 -14 24 -23 45 -20 48 2 3 -4 23
-15 46 -18 42 -24 67 -14 67 3 0 10 -10 15 -22z m-5112 -2 c6 -4 17 -16 23
-27 9 -19 9 -19 -10 -10 -30 17 -41 13 -52 -16 -12 -33 0 -47 32 -34 40 15 74
3 86 -30 7 -19 18 -29 32 -29 11 0 23 -5 27 -11 3 -6 16 -8 27 -5 12 3 27 0
35 -7 8 -6 44 -12 81 -13 36 -2 75 -4 86 -6 16 -2 21 4 25 31 8 57 35 51 33
-7 -1 -14 41 -27 56 -18 5 4 12 2 16 -3 3 -6 -15 -11 -42 -13 -43 -3 -48 -6
-51 -29 -3 -24 -5 -26 -27 -15 -14 6 -25 19 -25 29 0 19 -11 22 -27 6 -8 -8
-21 -8 -45 -1 -18 5 -69 16 -113 23 -60 9 -85 18 -101 36 -22 24 -44 33 -27
11 6 -7 13 -32 16 -54 l5 -42 -39 2 c-43 2 -66 16 -27 16 23 0 38 16 38 41 0
5 -9 9 -19 9 -11 0 -23 5 -26 10 -3 6 -1 10 5 10 6 0 8 5 5 10 -4 6 -12 7 -18
3 -7 -4 -23 -9 -36 -11 -13 -2 -41 -12 -62 -23 -30 -15 -39 -25 -39 -44 0 -16
-6 -25 -16 -25 -11 0 -15 6 -11 20 5 21 -1 24 -27 14 -9 -4 -16 -18 -16 -33 0
-53 -68 -109 -105 -88 -13 7 -24 6 -36 -2 -33 -20 -42 -14 -35 24 8 40 9 40
-37 20 -19 -8 -37 -11 -41 -8 -3 4 -6 -1 -6 -9 0 -11 -6 -14 -18 -11 -10 2
-24 -3 -31 -11 -8 -9 -22 -16 -32 -16 -11 0 -19 -4 -19 -10 0 -5 -5 -10 -12
-10 -6 0 -3 9 8 21 22 25 167 99 194 99 10 0 22 5 25 10 3 6 1 10 -4 10 -6 0
-11 4 -11 9 0 4 10 6 23 4 26 -5 42 19 52 82 4 22 12 49 18 60 10 18 11 17 18
-15 5 -24 3 -44 -7 -64 -22 -45 -15 -73 12 -46 5 5 30 20 54 33 133 70 141 77
163 148 5 16 33 19 55 5z m-587 -141 c0 -6 11 -16 25 -23 13 -7 24 -21 24 -32
0 -25 -8 -25 -33 -2 -19 17 -19 16 -16 -21 4 -38 3 -39 -46 -56 -27 -10 -95
-39 -149 -65 -54 -25 -100 -45 -101 -44 -2 2 1 12 5 24 5 13 49 41 125 78 64
32 124 59 133 61 14 2 16 12 14 50 -2 32 0 46 8 43 6 -2 11 -8 11 -13z m5449
-40 c0 -18 4 -23 15 -19 8 4 15 1 15 -5 0 -6 -5 -11 -11 -11 -5 0 -7 -5 -4
-10 4 -6 10 -8 15 -5 10 6 48 -42 77 -96 27 -52 97 -159 104 -159 9 0 47 38
51 52 7 21 38 -10 38 -37 0 -12 7 -28 15 -35 8 -7 15 -18 15 -24 0 -6 11 -28
25 -49 19 -27 22 -37 12 -37 -18 0 -87 83 -87 103 0 18 -24 39 -34 29 -4 -4
-13 -7 -18 -7 -21 0 -18 -22 7 -59 33 -49 32 -62 -5 -35 -16 12 -27 26 -24 30
2 4 -5 23 -16 41 -11 18 -23 40 -27 48 -3 8 -12 19 -20 23 -7 4 -13 14 -13 22
0 7 -3 15 -8 17 -14 6 -72 105 -72 124 0 35 -14 46 -36 29 -10 -8 -26 -14 -34
-14 -11 0 -10 3 4 14 17 13 18 18 8 40 -15 32 -15 55 -2 55 6 0 10 -11 10 -25z
m2444 -45 c19 -7 26 -17 26 -37 0 -41 -12 -53 -66 -67 l-49 -13 3 -42 c2 -35
-1 -43 -22 -52 -21 -10 -30 -7 -65 17 -48 34 -59 58 -36 81 14 14 18 14 26 2
7 -12 9 -12 9 1 0 19 40 46 40 28 1 -8 6 -6 14 5 7 9 21 17 30 17 9 0 16 7 16
15 0 8 5 15 10 15 6 0 10 -4 10 -10 0 -5 5 -10 11 -10 6 0 8 9 4 20 -6 18 0
40 10 40 2 0 15 -4 29 -10z m-7362 -40 c18 -11 43 -20 56 -20 34 0 26 -18 -11
-25 l-34 -7 2 -56 c2 -31 6 -81 10 -109 5 -37 4 -53 -3 -53 -6 0 -9 7 -6 15 4
8 1 15 -5 15 -6 0 -11 -5 -11 -11 0 -5 -4 -7 -10 -4 -6 4 -9 -5 -8 -19 1 -15
6 -26 10 -26 4 0 8 -4 8 -10 0 -5 -11 -10 -25 -10 -14 0 -25 -4 -25 -10 0 -5
7 -10 15 -10 20 0 19 -19 -2 -42 -19 -21 -35 -24 -28 -5 3 6 -4 18 -15 25 -30
19 -26 -7 7 -42 18 -20 23 -31 14 -34 -7 -2 -24 -15 -39 -28 -24 -22 -25 -25
-10 -34 29 -18 48 -41 42 -51 -3 -6 -11 -4 -17 4 -7 8 -20 17 -29 20 -15 5
-16 2 -8 -19 14 -35 12 -44 -5 -44 -9 0 -12 -6 -9 -15 8 -20 -20 -20 -36 0 -7
9 -15 13 -18 10 -9 -9 30 -45 50 -45 10 0 18 -5 18 -11 0 -6 -9 -8 -21 -4 -13
5 -25 2 -29 -6 -6 -9 -15 -4 -34 17 -14 16 -26 33 -26 38 0 5 -7 17 -16 27
-18 20 -11 37 44 103 17 22 32 44 32 48 0 5 12 24 27 43 15 18 28 39 29 47 1
7 11 33 22 58 21 46 62 188 62 214 0 8 -9 18 -20 21 -24 8 -26 28 -4 49 19 20
17 20 56 -4z m2695 -70 c14 -11 20 -20 14 -20 -7 0 -9 -5 -6 -10 4 -6 2 -17
-4 -23 -7 -10 -2 -20 19 -41 17 -15 30 -34 30 -42 0 -7 10 -16 23 -20 15 -4
32 -27 55 -73 17 -37 32 -71 32 -75 0 -4 16 -24 35 -44 48 -51 46 -66 -14 -95
-34 -17 -59 -14 -31 3 25 16 2 23 -30 10 -35 -15 -49 -8 -30 15 11 13 10 19
-5 35 -9 10 -14 23 -11 28 3 6 8 29 11 52 3 24 8 47 11 52 7 10 -18 68 -29 68
-4 0 -7 -6 -6 -12 4 -31 -1 -41 -14 -30 -7 6 -22 9 -33 7 -30 -7 -67 59 -61
107 4 27 1 38 -8 38 -16 0 -25 78 -10 84 21 9 38 5 62 -14z m-295 -12 c2 -16
11 -24 28 -26 101 -11 117 -22 118 -83 l1 -42 -27 25 c-33 30 -86 55 -166 78
-42 11 -62 22 -64 35 -5 24 15 35 65 35 36 0 42 -3 45 -22z m-837 -55 c-3 -16
-8 -39 -9 -53 -2 -14 -10 -26 -20 -28 -44 -9 -55 -110 -24 -219 12 -43 13 -43
58 -42 25 0 68 4 95 9 28 4 52 6 54 4 2 -1 -9 -14 -23 -28 -31 -28 -20 -42 18
-25 32 15 32 26 0 86 -31 59 -53 121 -52 148 0 11 -6 47 -15 80 -9 32 -14 61
-12 63 6 6 33 -56 45 -104 5 -22 19 -49 30 -59 11 -10 20 -25 20 -33 0 -9 16
-46 35 -83 19 -38 35 -77 35 -87 0 -11 6 -25 14 -31 8 -7 26 -41 42 -76 16
-40 33 -65 43 -66 10 0 12 -2 4 -6 -17 -6 -16 -30 1 -40 38 -23 14 -62 -39
-63 -22 0 -26 3 -15 10 8 5 11 12 7 16 -4 4 -18 -5 -31 -19 -21 -23 -45 -31
-115 -40 -8 -1 -16 -7 -18 -14 -6 -17 30 -21 49 -6 14 13 21 12 50 -3 54 -27
60 -45 23 -62 -32 -15 -32 -31 3 -60 l27 -24 -33 7 c-25 5 -32 3 -30 -7 2 -9
-7 -12 -29 -10 -19 1 -33 -3 -33 -9 0 -7 -15 -9 -40 -6 -22 2 -40 3 -40 1 0
-2 18 -20 39 -41 28 -27 41 -49 45 -76 5 -39 0 -40 -34 -7 -88 84 -87 83 -111
66 -36 -25 -49 -21 -39 13 6 23 5 31 -7 35 -22 9 -25 8 -21 -13 2 -10 -6 -28
-16 -40 -12 -13 -14 -21 -7 -21 7 0 -1 -11 -16 -24 -15 -13 -29 -23 -31 -22
-3 4 29 80 37 86 3 3 12 17 20 32 13 25 11 28 -28 68 -22 23 -41 48 -41 56 0
8 -4 14 -10 14 -5 0 -10 5 -10 10 0 12 47 13 54 1 3 -4 31 -11 62 -14 50 -5
59 -3 75 16 10 12 18 28 19 35 0 15 -53 16 -80 2 -29 -16 -43 -4 -69 58 -12
31 -27 66 -31 77 -5 11 -16 46 -26 78 -9 31 -19 57 -22 57 -3 0 -10 -8 -17
-17 -11 -14 -13 -6 -12 48 0 35 -3 73 -5 84 -3 11 -8 31 -11 45 -3 14 -8 64
-11 113 -6 82 -5 87 14 87 14 0 19 -6 17 -21 -1 -12 6 -26 15 -32 26 -17 68
26 68 70 0 26 4 33 19 33 11 0 33 11 48 25 39 34 57 33 48 -2z m6518 -123 c9
-11 17 -23 17 -26 0 -3 16 -30 35 -60 19 -30 35 -61 35 -69 0 -8 12 -26 26
-40 23 -24 26 -32 20 -73 -7 -52 -31 -85 -57 -77 -13 4 -16 1 -13 -12 6 -22
-22 -93 -36 -93 -15 0 -12 20 3 21 6 0 3 4 -8 8 -20 8 -45 -8 -45 -29 0 -7 -7
-9 -16 -6 -11 4 -15 2 -11 -8 3 -8 -2 -16 -13 -19 -26 -7 -33 4 -12 19 15 12
14 13 -15 14 -23 0 -31 -4 -27 -14 13 -33 -51 -26 -97 11 -61 49 -85 83 -59
83 6 0 10 -6 10 -13 0 -7 9 -18 20 -24 17 -11 16 -6 -8 40 -57 107 -78 135
-84 115 -6 -17 -30 7 -57 56 -24 42 -25 46 -11 46 6 0 10 -6 10 -14 0 -17 24
-28 36 -16 5 5 20 10 33 12 16 2 31 16 44 42 11 21 29 41 39 44 13 3 16 10 12
28 -5 18 -2 24 10 24 9 0 16 -5 16 -11 0 -6 16 -2 36 10 42 25 48 26 41 7 -3
-8 1 -20 9 -27 13 -10 17 -10 25 2 5 8 9 19 9 26 0 11 44 41 60 43 3 0 13 -9
23 -20z m-7243 -123 c10 -28 24 -46 43 -55 33 -16 34 -22 3 -51 -19 -18 -24
-31 -20 -57 2 -19 1 -34 -2 -34 -3 0 -22 10 -43 22 -37 21 -40 22 -110 7 -40
-9 -74 -12 -77 -8 -3 5 13 21 35 36 47 32 51 50 16 59 -34 9 -32 24 4 24 42 0
80 17 87 37 28 82 42 86 64 20z m-2987 -22 c3 -31 15 -70 26 -88 14 -22 17
-37 11 -47 -6 -8 -10 -28 -10 -45 0 -16 -4 -25 -8 -20 -4 6 -14 16 -23 23 -21
16 -63 1 -90 -31 -10 -12 -18 -17 -19 -10 0 15 35 162 46 188 13 34 46 85 54
85 4 0 10 -25 13 -55z m2693 24 c19 -11 34 -27 34 -34 0 -16 -54 -45 -84 -45
-24 0 -93 -87 -102 -129 -18 -83 -85 -157 -256 -283 -34 -26 -73 -56 -85 -68
-16 -14 -23 -17 -23 -7 0 8 12 25 28 40 55 53 67 74 51 94 -11 13 -10 18 9 33
26 22 27 28 5 52 -14 16 -27 108 -15 108 13 0 33 -35 38 -69 4 -23 10 -41 15
-41 12 0 21 38 13 52 -4 7 -9 23 -10 36 l-3 24 25 -23 c26 -24 31 -17 11 16
-7 11 -21 22 -32 23 -11 2 -24 8 -29 12 -5 5 0 7 12 3 14 -3 24 2 31 16 7 12
9 21 5 21 -4 0 -5 3 -1 6 3 4 20 -5 37 -20 48 -40 114 -32 150 18 37 51 60
101 60 132 0 55 55 71 116 33z m3146 10 c19 0 32 -25 17 -35 -6 -4 -1 -11 13
-18 30 -15 52 -61 44 -92 -4 -14 -21 -33 -39 -44 -49 -30 -102 -26 -180 15
l-68 35 -42 -28 c-59 -41 -81 -46 -118 -26 -62 32 -81 72 -59 128 12 33 32 42
105 50 33 4 83 11 110 16 28 5 84 6 125 4 41 -3 83 -5 92 -5z m3710 -34 c26
-1 45 2 43 5 -2 3 12 6 31 6 19 0 34 -3 34 -8 0 -17 46 -48 71 -48 41 0 79
-17 79 -35 0 -10 -5 -13 -12 -9 -18 11 -212 12 -219 2 -3 -5 -13 -2 -22 7 -9
9 -21 13 -27 10 -6 -4 -10 5 -10 21 0 20 -3 24 -12 17 -7 -6 -31 -13 -53 -17
l-40 -7 35 34 c19 19 39 32 45 29 5 -3 31 -6 57 -7z m-4932 -66 c0 -18 -7 -33
-20 -41 -24 -15 -26 -43 -4 -52 12 -5 15 -2 10 10 -5 14 -4 15 8 5 15 -12 28
-51 17 -49 -21 2 -51 -3 -51 -10 0 -4 14 -13 30 -20 33 -15 38 -35 14 -59 -13
-13 -13 -18 -2 -25 10 -6 8 -12 -10 -26 -24 -19 -20 -32 9 -32 16 0 17 -4 9
-25 -8 -20 -6 -27 12 -36 15 -8 17 -13 8 -19 -10 -6 -8 -14 6 -34 11 -14 22
-26 25 -26 13 0 59 -50 59 -64 0 -8 5 -18 10 -21 6 -4 19 -25 31 -48 11 -23
14 -34 6 -25 -20 26 -100 109 -130 137 l-26 24 -48 -28 c-26 -15 -58 -40 -70
-54 -12 -15 -25 -22 -30 -17 -4 5 -2 11 5 13 6 3 9 10 6 15 -4 6 -2 8 4 4 17
-10 23 10 7 24 -12 10 -18 10 -30 0 -12 -10 -15 -9 -15 6 0 12 12 24 30 32 37
17 38 27 5 28 -17 1 -26 -4 -27 -15 0 -9 -4 4 -7 29 -5 39 -11 48 -43 65 -44
23 -46 30 -15 55 22 19 22 19 2 34 l-20 15 20 6 c11 4 34 13 52 21 17 8 36 14
42 14 6 0 15 10 20 23 22 54 69 174 75 190 9 26 26 11 26 -24z m1815 -38 c36
-35 51 -52 89 -106 16 -22 50 -60 75 -85 74 -72 194 -211 188 -216 -3 -3 -14
-1 -25 5 -25 13 -65 14 -77 2 -12 -11 -117 -43 -122 -37 -2 2 11 21 29 42 25
28 28 36 13 30 -11 -5 -36 -10 -55 -12 -21 -2 -41 -12 -52 -26 -13 -17 -18
-19 -18 -8 0 22 34 48 67 52 17 2 29 10 31 21 3 13 -4 17 -31 17 -20 0 -37 -6
-40 -12 -2 -7 -8 -9 -13 -5 -5 5 1 17 15 28 l23 19 -23 0 c-18 0 -20 3 -11 12
20 20 14 38 -13 38 -31 0 -31 6 -2 31 20 17 20 18 2 12 -11 -3 -31 -15 -44
-25 -13 -10 -27 -15 -30 -12 -3 4 0 9 7 11 17 6 15 23 -3 23 -8 0 -15 5 -15
10 0 6 11 10 25 10 14 0 25 5 25 11 0 6 -8 8 -19 4 -11 -3 -22 -1 -26 5 -3 5
-11 10 -16 10 -6 0 -7 -4 -4 -10 3 -5 -3 -10 -13 -10 -16 0 -19 -5 -15 -22 5
-23 5 -23 -10 -3 -15 20 -10 37 18 57 5 4 10 21 11 37 2 28 0 30 -30 25 -24
-4 -27 -3 -16 5 13 9 13 11 -2 11 -10 0 -18 5 -18 10 0 6 5 10 10 10 6 0 10 8
10 19 0 20 35 50 60 50 9 1 29 -12 45 -28z m3271 -66 c14 -25 35 -50 46 -56
12 -6 17 -17 14 -26 -5 -11 -2 -14 11 -9 10 4 14 4 10 0 -4 -4 -2 -13 3 -20 6
-6 9 -18 8 -25 -2 -7 3 -13 9 -14 17 0 46 -43 38 -56 -4 -6 3 -13 15 -16 11
-3 19 -11 17 -17 -3 -7 8 -21 24 -32 16 -10 29 -26 29 -35 0 -9 7 -22 15 -29
8 -7 15 -19 15 -26 0 -8 4 -14 8 -14 5 0 15 -11 22 -25 11 -20 10 -28 -4 -50
-20 -30 -41 -32 -58 -5 -7 11 -18 20 -25 20 -6 0 -14 9 -18 19 -4 12 -12 18
-20 14 -22 -8 -1 -39 31 -47 20 -5 23 -10 14 -21 -9 -10 -7 -14 6 -17 17 -3
17 -4 0 -20 -18 -18 -68 -16 -94 5 -9 7 -11 6 -6 -8 5 -11 1 -21 -9 -27 -10
-5 -17 -18 -17 -28 0 -36 -23 -34 -55 3 -18 20 -39 37 -48 37 -9 0 -19 5 -22
10 -9 15 -25 12 -25 -6 0 -9 5 -12 12 -8 6 4 8 3 4 -4 -3 -6 -1 -22 6 -37 10
-22 9 -28 -3 -35 -17 -11 -30 1 -61 60 -14 25 -47 78 -74 119 -59 88 -71 108
-114 186 -18 33 -38 67 -44 75 -14 18 -36 67 -36 80 0 19 29 10 35 -10 3 -11
10 -20 16 -20 5 0 15 -16 23 -35 8 -19 20 -35 25 -35 6 0 11 -7 11 -16 0 -9 9
-18 20 -21 15 -4 18 -9 10 -18 -13 -15 20 -27 40 -15 10 6 10 16 -4 44 -9 19
-21 38 -26 41 -5 3 -7 12 -3 20 3 8 0 15 -6 15 -6 0 -11 6 -11 13 0 6 -9 23
-20 37 -30 39 -26 49 15 36 26 -8 39 -19 47 -43 7 -18 16 -33 20 -33 4 0 8 -7
8 -15 0 -8 4 -15 9 -15 5 0 13 -9 16 -20 4 -11 11 -18 16 -14 6 3 16 0 24 -6
8 -6 18 -9 24 -6 10 6 3 46 -8 46 -4 0 -13 16 -20 36 -10 27 -10 39 -1 47 9 9
16 6 32 -13 11 -14 28 -24 39 -22 17 3 46 -33 41 -50 -1 -5 3 -8 8 -8 21 0 -1
70 -41 130 -15 23 -23 52 -20 73 3 21 33 1 57 -38z m-9420 -207 c-4 -24 -9
-53 -13 -65 -5 -21 -2 -23 33 -23 29 0 35 -3 24 -10 -8 -5 -29 -10 -47 -10
-17 0 -38 -3 -47 -6 -14 -5 -14 -8 -1 -27 30 -42 17 -48 -42 -19 -57 27 -83
45 -83 57 0 3 5 3 10 0 6 -3 20 -3 31 0 16 5 19 12 15 31 -8 29 3 30 37 4 33
-26 56 -27 33 -1 -17 19 -17 22 14 65 17 25 34 46 37 46 3 0 3 -19 -1 -42z
m-677 -110 c-1 -29 0 -55 1 -58 7 -14 9 -58 4 -79 -5 -23 -6 -23 -50 20 -24
24 -46 51 -49 61 -4 9 -15 20 -26 23 -10 4 -19 14 -19 23 1 15 3 14 15 -2 20
-27 19 -6 -1 22 -19 28 -13 39 10 17 9 -9 21 -13 27 -9 7 4 2 14 -15 29 -21
18 -23 24 -11 29 9 3 15 0 15 -10 0 -17 29 -12 65 11 17 11 21 10 27 -6 4 -10
7 -42 7 -71z m3733 -63 c3 -16 12 -21 51 -23 l48 -3 -40 -36 c-35 -30 -41 -41
-41 -77 l-1 -41 -34 40 c-33 39 -34 39 -70 26 -45 -16 -53 -9 -30 25 11 18 15
36 11 56 -5 26 -3 29 12 23 43 -18 49 -16 62 15 13 32 25 30 32 -5z m7455 -87
c-3 -8 -22 -19 -44 -26 -21 -6 -68 -30 -105 -52 -37 -22 -71 -40 -77 -40 -5 0
-11 -4 -13 -8 -5 -13 -118 -72 -145 -76 -7 -1 -24 -12 -37 -23 -13 -12 -27
-19 -30 -16 -3 3 -12 -2 -21 -11 -19 -18 -24 -19 -44 -7 -19 12 -9 34 20 47
13 6 128 63 254 126 213 107 256 122 242 86z m-12264 0 c15 -12 15 -17 -2 -66
-10 -29 -21 -55 -24 -58 -3 -4 -3 -19 0 -34 3 -16 -3 -56 -15 -92 -37 -119
-37 -132 2 -172 24 -25 40 -34 52 -29 10 4 21 0 28 -9 14 -19 102 -41 122 -30
12 7 8 12 -18 25 -18 8 -41 18 -50 21 -31 9 -21 29 10 21 15 -4 49 -10 76 -15
33 -5 55 -15 66 -30 17 -22 17 -22 28 26 40 175 51 216 51 197 1 -29 21 -30
21 -1 0 33 34 128 46 128 15 0 40 -22 47 -42 4 -12 2 -15 -10 -11 -12 5 -14 1
-8 -15 4 -13 2 -22 -4 -22 -6 0 -11 -11 -11 -25 0 -14 5 -25 10 -25 6 0 2 -9
-9 -21 -26 -28 -32 -56 -15 -70 11 -9 11 -17 0 -47 -8 -21 -24 -70 -36 -109
-12 -40 -26 -75 -31 -78 -5 -4 -7 -11 -3 -16 3 -5 1 -15 -4 -22 -5 -7 -12 -29
-16 -50 -4 -21 -17 -60 -29 -87 -24 -54 -57 -71 -96 -51 -11 6 -45 11 -76 11
-50 0 -56 2 -51 17 4 10 4 14 0 11 -4 -4 -16 -1 -28 7 -25 18 -34 19 -33 3 1
-38 -4 -69 -11 -64 -4 2 -19 -5 -32 -16 -14 -11 -19 -17 -12 -13 8 4 31 7 52
7 24 -1 40 5 44 13 7 20 46 6 59 -22 8 -19 7 -26 -9 -38 -29 -22 -68 -19 -79
6 -12 27 -29 30 -33 6 -3 -12 4 -20 17 -24 12 -3 21 -13 21 -24 0 -10 14 -28
30 -41 17 -12 30 -26 30 -31 0 -5 -28 -6 -62 -3 -79 8 -132 -3 -137 -29 -5
-29 -25 -44 -44 -33 -11 6 -17 5 -17 -2 0 -5 7 -10 15 -10 18 0 19 -14 4 -42
-11 -20 -12 -19 -25 18 -7 21 -15 53 -16 69 -3 27 0 30 25 28 17 -1 27 3 27
12 0 8 7 11 20 8 14 -4 20 0 20 10 0 21 -40 33 -51 16 -6 -10 -9 -6 -9 13 0
31 9 39 50 40 33 1 38 9 15 28 -20 16 -19 28 2 32 15 3 15 5 -3 22 -19 20 -19
20 1 12 21 -9 54 -10 62 -2 2 2 0 21 -6 41 -7 25 -7 44 -1 56 6 10 10 29 10
43 0 14 8 40 18 58 12 21 16 41 12 53 -5 12 -1 31 9 48 16 28 15 29 -17 55
-18 15 -32 33 -32 40 0 6 -5 12 -10 12 -12 0 -17 -12 -24 -55 -10 -64 -19
-100 -29 -112 -5 -7 -7 -13 -4 -13 3 0 2 -14 -3 -31 -11 -39 -4 -59 24 -60 20
-1 20 -2 1 -6 -11 -2 -29 -15 -40 -29 -18 -20 -24 -22 -37 -12 -16 12 -16 18
-2 68 9 30 17 64 19 75 1 11 8 40 15 64 6 25 16 65 20 90 5 26 23 100 40 166
53 200 57 219 49 248 -6 22 -4 27 10 27 9 0 25 -6 34 -12z m6856 -130 c111
-25 155 -51 159 -94 4 -45 -30 -72 -98 -76 -54 -3 -55 -3 -60 -38 -4 -20 -10
-41 -14 -48 -13 -21 -60 -13 -92 16 -35 31 -48 61 -49 113 0 31 3 35 21 31 14
-2 28 5 43 23 11 15 21 31 21 34 0 11 -69 10 -76 0 -3 -5 5 -9 17 -9 18 0 19
-2 9 -15 -12 -14 -15 -14 -31 1 -15 14 -16 20 -7 31 9 11 9 16 0 22 -7 4 -10
15 -6 24 7 19 19 17 163 -15z m4668 -70 c2 -40 -3 -78 -9 -85 -7 -9 -7 -17 1
-27 7 -8 14 -30 16 -49 1 -19 6 -44 10 -56 4 -15 2 -21 -8 -21 -8 0 -17 -9
-20 -20 -4 -17 -2 -20 13 -15 15 5 23 -2 35 -31 25 -60 18 -59 -50 11 -36 36
-65 70 -65 76 0 5 -6 9 -13 9 -7 0 -28 13 -47 30 -19 16 -55 44 -79 62 -52 38
-66 64 -30 53 21 -7 22 -6 11 8 -19 22 -6 42 16 25 12 -10 16 -10 19 0 3 6 14
12 24 12 12 0 17 -5 14 -10 -4 -6 -4 -29 0 -50 6 -37 9 -39 33 -33 15 3 33 12
40 20 7 7 24 16 38 19 13 3 24 12 24 19 0 15 -27 45 -40 45 -5 0 -16 7 -25 16
-12 13 -13 19 -4 30 7 8 19 12 28 9 10 -3 26 2 37 10 10 8 21 15 24 15 3 0 6
-32 7 -72z m800 -3 c2 -22 8 -76 14 -119 9 -70 9 -80 -6 -89 -15 -8 -15 -10
-1 -20 18 -14 30 -163 14 -184 -5 -7 -5 -14 2 -18 5 -3 10 -17 10 -30 l0 -24
-50 26 c-41 21 -49 30 -44 46 5 16 3 19 -10 14 -26 -10 -44 2 -39 26 4 21 4
21 -10 4 -13 -16 -19 -14 -87 30 -40 26 -67 49 -61 51 6 2 18 -1 25 -7 17 -14
64 2 72 24 8 20 38 36 76 41 17 2 39 13 50 24 10 11 22 20 26 20 4 0 8 17 9
38 4 64 -53 104 -140 97 -45 -4 -59 20 -16 29 16 3 29 12 29 20 0 8 11 23 24
34 19 14 34 17 68 13 42 -6 43 -7 45 -46z m-6607 -245 c15 0 12 -27 -4 -33 -8
-3 -17 -1 -20 6 -3 9 -5 9 -5 0 -1 -6 5 -18 12 -25 14 -14 16 -56 3 -77 -5 -8
-3 -17 5 -22 22 -14 50 29 47 72 -3 35 -2 37 40 48 56 15 108 14 157 -3 l40
-15 -3 -57 c-1 -32 -4 -60 -7 -62 -2 -3 -23 3 -45 12 -43 17 -110 13 -110 -6
0 -5 -16 3 -35 18 -39 29 -50 14 -16 -22 16 -17 27 -20 67 -15 71 9 107 3 100
-16 -3 -8 -6 -26 -6 -39 0 -16 -6 -24 -17 -24 -17 -1 -17 -1 0 -14 16 -12 15
-15 -18 -40 -19 -15 -34 -30 -34 -34 4 -24 -2 -72 -9 -72 -4 0 -13 23 -19 51
-19 80 -102 198 -140 199 -19 0 -35 39 -29 68 3 19 0 15 -11 -10 -9 -21 -20
-38 -25 -38 -14 0 -89 -73 -99 -95 -7 -19 -8 -19 -8 -1 -1 11 11 35 25 54 34
44 104 171 104 188 0 7 5 25 12 39 l12 26 12 -31 c7 -16 18 -30 24 -30z
m-4852 -129 c15 -5 38 -11 52 -13 23 -3 22 -5 -20 -34 l-45 -30 2 -65 3 -64
-41 48 c-46 52 -70 58 -134 31 -64 -26 -76 -13 -27 31 50 45 49 64 -6 112 -20
17 -34 34 -31 37 6 6 59 -8 96 -26 26 -13 53 -4 53 17 0 8 4 15 9 15 5 0 20
17 33 38 l23 37 3 -61 c3 -57 5 -63 30 -73z m3364 17 c20 -23 47 -55 60 -70
37 -42 51 -60 90 -113 20 -28 49 -57 63 -65 38 -20 58 -62 41 -85 -11 -15 -16
-16 -35 -5 -22 11 -22 12 -5 31 20 22 12 38 -11 19 -9 -7 -18 -10 -22 -7 -3 4
-14 2 -23 -3 -16 -9 -18 -6 -13 31 l6 41 -31 -16 c-17 -9 -37 -16 -44 -16 -15
0 -48 35 -48 50 0 5 -11 12 -25 16 -21 5 -24 10 -19 33 4 14 13 36 20 48 17
26 18 47 4 38 -17 -11 -39 14 -46 53 -7 38 -24 62 -44 62 -7 0 -10 -7 -6 -15
3 -9 0 -15 -9 -15 -8 0 -15 9 -15 20 0 10 -7 23 -16 28 -9 5 -14 14 -10 20 11
18 100 -33 138 -80z m2680 10 c48 -40 52 -41 114 -39 35 1 64 -2 64 -7 0 -5
-9 -19 -20 -32 -33 -38 -27 -53 38 -94 23 -14 42 -29 42 -32 0 -4 -26 -4 -57
0 l-58 6 -3 -32 c-3 -48 -6 -61 -16 -77 -12 -19 -38 64 -31 96 7 29 -4 34 -48
20 -27 -9 -37 -17 -37 -33 0 -23 -9 -36 -21 -29 -4 3 -1 26 8 52 15 43 15 47
-2 60 -22 16 -26 16 -45 2 -11 -8 -12 -12 -2 -16 17 -7 15 -23 -3 -23 -8 0
-15 7 -15 15 0 8 -7 15 -16 15 -14 0 -14 2 -3 16 11 14 10 18 -6 30 -10 8 -26
14 -34 14 -11 0 -10 4 5 15 19 15 18 16 -8 36 -31 23 -36 44 -12 53 23 9 81
-19 89 -43 3 -12 11 -21 16 -21 12 0 12 57 -1 65 -5 3 -10 10 -10 16 0 19 23
8 72 -33z m1022 3 c3 -4 -3 -16 -14 -26 -26 -23 -26 -38 0 -30 11 4 20 2 20
-4 0 -6 7 -11 16 -11 14 0 15 2 3 18 -13 16 -13 16 7 0 11 -10 26 -18 33 -18
9 0 12 -9 9 -25 -7 -35 5 -31 24 8 15 31 18 32 57 29 47 -5 49 -13 3 -14 -24
-1 -32 -7 -37 -26 -9 -35 3 -41 25 -12 l20 25 0 -28 c0 -16 4 -26 10 -22 6 3
11 -2 12 -12 6 -69 5 -73 -13 -73 -10 0 -21 9 -24 20 -7 22 -20 26 -30 10 -3
-5 -15 -10 -26 -10 -10 0 -19 -7 -19 -15 0 -8 9 -15 21 -15 26 0 17 -16 -13
-23 -13 -2 -31 -8 -40 -12 -14 -5 -18 -2 -18 14 0 14 -5 19 -15 14 -9 -3 -13
-8 -11 -11 3 -3 1 -11 -5 -19 -9 -10 -5 -15 20 -24 28 -10 31 -15 31 -55 0
-33 -4 -44 -15 -44 -16 0 -15 -35 7 -133 8 -36 7 -51 -2 -62 -16 -20 -30 -10
-30 21 0 14 -8 46 -18 72 -11 26 -29 81 -42 122 -12 41 -28 91 -35 110 -7 19
-18 53 -23 75 -6 22 -18 64 -27 94 -20 66 -11 81 37 63 30 -11 35 -10 58 13
26 27 36 30 44 16z m-2779 -63 c0 -36 4 -43 33 -58 19 -10 59 -40 90 -67 91
-79 184 -138 230 -148 45 -9 112 -80 112 -118 0 -15 5 -38 12 -50 6 -12 12
-43 13 -70 1 -37 6 -51 23 -63 12 -8 22 -24 22 -34 0 -10 3 -20 8 -22 11 -5
82 -104 82 -115 0 -5 11 -15 25 -21 15 -7 22 -17 19 -25 -3 -9 6 -19 24 -28
16 -8 29 -18 29 -24 0 -5 10 -14 22 -20 27 -12 27 -22 0 -30 -16 -6 -28 0 -48
21 -30 33 -81 107 -81 117 0 4 -20 33 -45 66 -25 32 -45 64 -45 69 0 5 -6 12
-14 15 -15 6 -46 62 -46 84 0 7 -7 13 -15 13 -7 0 -18 6 -22 13 -8 13 -27 26
-78 53 -46 25 -95 76 -95 98 0 12 -15 37 -34 56 -19 19 -45 46 -58 60 -13 14
-39 36 -58 50 -18 14 -52 42 -74 64 -52 49 -119 92 -123 79 -2 -6 -10 -19 -18
-29 -11 -15 -16 -17 -26 -6 -7 6 -27 12 -43 13 -17 0 -40 4 -51 8 -17 7 -15 9
16 20 20 6 54 13 75 15 34 3 39 7 42 30 2 14 6 27 10 27 4 1 17 3 30 4 12 1
26 5 29 9 13 13 28 -16 28 -56z m4663 -30 c53 -39 82 -67 181 -172 20 -21 55
-52 79 -68 24 -17 41 -32 39 -35 -7 -6 -114 40 -118 52 -2 5 -8 10 -14 10 -5
1 -38 9 -72 20 -48 14 -75 30 -118 71 -52 50 -55 55 -55 102 0 43 5 62 17 62
2 0 30 -19 61 -42z m1138 1 c42 -17 87 -29 101 -26 13 2 26 0 29 -5 3 -5 13
-7 21 -4 8 3 12 2 9 -3 -3 -5 0 -14 8 -20 20 -17 76 -2 86 23 5 12 9 15 9 7 1
-8 8 -23 18 -33 16 -17 15 -18 -18 -11 -32 6 -33 5 -19 -11 13 -16 12 -20 -9
-37 -28 -23 -10 -25 24 -3 34 22 54 13 27 -12 -18 -17 -19 -21 -7 -38 12 -16
17 -17 30 -6 8 7 15 19 15 26 0 8 5 14 11 14 6 0 8 -6 5 -12 -3 -7 -9 -21 -12
-30 -4 -10 -10 -18 -14 -18 -13 0 6 -84 29 -128 12 -24 20 -46 17 -49 -3 -3
-46 34 -96 82 l-91 87 -60 -4 c-57 -4 -60 -3 -56 16 22 94 28 80 -77 166 -90
73 -89 73 20 29z m-3382 -35 c26 -26 26 -26 26 -5 0 37 22 18 35 -30 45 -162
54 -199 59 -237 2 -24 2 -42 -1 -39 -2 3 -24 -15 -48 -39 -24 -24 -48 -44 -54
-44 -6 0 -8 -6 -5 -14 5 -14 -28 -30 -55 -26 -8 1 -17 -2 -20 -7 -15 -20 -119
-44 -106 -24 8 14 -14 24 -28 13 -21 -16 -56 -20 -67 -8 -5 7 -6 16 -2 20 4 5
-2 7 -13 5 -11 -1 -28 1 -37 6 -21 9 -24 55 -4 55 10 0 12 13 9 53 -9 128 -16
163 -37 192 -57 78 -58 81 -30 100 19 12 32 14 52 7 l27 -10 -30 -7 c-43 -11
-47 -15 -34 -31 13 -16 59 -19 59 -4 0 6 7 10 15 10 8 0 15 7 15 15 0 13 33
21 64 16 5 -1 5 4 -1 11 -8 9 -7 16 2 25 10 10 14 9 18 -2 9 -22 119 -17 135
6 17 25 24 24 56 -7z m-2754 -131 c19 -31 55 -81 80 -112 58 -71 187 -201 200
-201 10 0 13 -12 8 -27 -4 -11 -62 -10 -70 2 -4 5 -14 2 -26 -8 -21 -19 -42
-22 -42 -7 0 6 -7 10 -16 10 -11 0 -14 -6 -9 -20 3 -11 2 -20 -4 -20 -5 0 -13
9 -16 20 -3 11 -10 20 -14 20 -4 0 -17 -9 -29 -20 -25 -23 -36 -26 -29 -6 10
24 -5 26 -36 4 -24 -17 -33 -19 -48 -10 -10 7 -32 12 -49 12 -16 0 -30 2 -30
5 0 2 11 39 25 80 14 42 30 115 36 163 18 160 20 172 27 172 4 0 23 -26 42
-57z m-3676 -179 c21 -8 21 -24 0 -24 -11 0 -14 -5 -10 -16 4 -11 -1 -22 -13
-31 -13 -8 -22 -30 -26 -61 -10 -72 -14 -81 -40 -88 -15 -4 -22 -11 -18 -20 4
-12 -1 -14 -23 -9 -16 3 -23 2 -16 -1 19 -9 14 -21 -13 -28 -16 -4 -22 -11
-19 -21 4 -9 0 -15 -9 -15 -23 0 -41 -26 -25 -37 8 -5 -5 -10 -37 -15 -83 -12
-228 -37 -241 -42 -7 -3 -15 -2 -18 1 -8 8 24 43 39 43 6 0 21 10 32 23 11 12
46 40 77 62 31 22 56 45 56 52 0 8 -11 41 -25 75 -37 92 -34 100 27 74 51 -21
131 -46 150 -46 16 0 29 14 91 94 29 37 35 40 61 30z m5912 -123 c15 -28 18
-43 11 -50 -8 -8 -4 -11 14 -11 21 -1 22 -2 7 -11 -24 -13 -23 -29 2 -29 24 0
35 -36 25 -88 -6 -35 -6 -36 9 -17 l15 20 0 -20 c0 -14 -14 -27 -44 -42 -46
-23 -61 -18 -50 16 3 10 -1 39 -10 64 -8 25 -18 75 -21 112 -9 102 6 122 42
56z m3371 -68 c52 -7 138 -61 148 -92 3 -10 14 -26 25 -36 44 -40 10 -48 -48
-12 -27 18 -47 23 -74 19 -29 -3 -38 -1 -38 11 0 8 -26 40 -57 72 -51 51 -55
57 -30 51 15 -3 48 -9 74 -13z m1855 -13 c-5 -32 -2 -34 61 -45 49 -8 47 -26
-5 -50 -36 -17 -44 -25 -46 -52 -2 -18 -6 -33 -10 -33 -13 0 -29 15 -41 38
-13 24 -40 29 -59 10 -17 -17 -26 -3 -13 20 15 29 14 57 -4 72 -25 21 -17 30
24 30 24 0 48 8 62 20 32 26 36 25 31 -10z m-8958 -89 c-3 -9 -7 -29 -8 -46
-1 -25 -6 -31 -28 -33 -14 -2 -29 -10 -32 -18 -4 -11 0 -13 18 -8 13 3 27 1
31 -6 4 -6 16 -8 28 -4 19 6 20 5 9 -9 -8 -9 -11 -21 -8 -26 9 -14 -14 -25
-26 -13 -10 10 -58 -6 -58 -19 0 -4 12 -20 28 -36 22 -25 28 -40 30 -91 2 -36
-1 -62 -7 -62 -12 0 -101 111 -101 126 0 15 -49 24 -69 14 -31 -16 -142 -60
-152 -60 -5 0 16 32 46 71 30 39 55 76 55 81 0 6 -20 35 -45 64 -44 51 -44 52
-18 45 16 -4 52 -9 82 -10 30 -1 58 -4 62 -7 5 -3 36 18 70 46 59 47 64 49 81
33 11 -10 16 -23 12 -32z m6331 -95 c187 -212 240 -276 245 -298 7 -26 -3
-144 -12 -154 -12 -12 -39 18 -33 36 3 9 -2 23 -11 31 -14 12 -14 14 2 26 16
11 13 13 -24 13 -23 0 -42 5 -42 10 0 6 -6 10 -14 10 -14 0 -15 45 -1 102 6
23 4 28 -19 34 -15 3 -36 4 -48 1 -12 -3 -36 0 -54 8 -18 7 -34 11 -37 9 -2
-3 -10 2 -17 11 -7 8 -21 15 -32 15 -14 0 -18 5 -14 15 3 9 0 18 -8 21 -7 3
-13 17 -13 33 l0 28 61 -5 c54 -4 59 -3 47 11 -7 9 -27 19 -44 22 -18 3 -41
10 -52 15 -11 4 -28 11 -39 14 -18 6 -18 7 -1 26 18 20 13 40 -10 40 -7 0 -16
-7 -19 -16 -4 -10 -16 -14 -38 -12 -40 4 -40 21 -1 29 15 3 46 15 68 27 22 12
42 21 45 22 3 0 55 -56 115 -124z m-4181 74 c24 -27 36 -50 36 -69 0 -17 5
-33 10 -36 6 -3 10 -31 10 -60 0 -44 -4 -56 -20 -65 -15 -8 -20 -20 -18 -45 1
-25 -4 -41 -20 -55 -24 -23 -20 -49 4 -29 20 17 17 1 -6 -28 -11 -14 -18 -29
-15 -33 6 -10 -46 -34 -68 -31 -10 1 -21 -8 -27 -23 -5 -14 -14 -26 -19 -26
-6 0 -19 -10 -30 -21 -11 -12 -26 -19 -33 -15 -48 25 -64 38 -68 58 -7 27 -36
32 -32 5 2 -14 -2 -16 -23 -11 -23 6 -26 4 -23 -12 2 -10 13 -24 26 -30 35
-17 40 -26 12 -22 -25 3 -25 2 -25 -75 0 -43 3 -81 7 -83 13 -9 9 -52 -6 -57
-20 -8 -36 13 -36 44 0 15 -5 31 -10 34 -6 4 -8 11 -4 16 3 6 3 18 -1 27 -4 9
-9 48 -11 86 -2 38 -5 70 -7 72 -2 2 -19 1 -39 -3 -36 -5 -37 -6 -32 -46 3
-22 9 -48 14 -56 4 -9 6 -27 3 -41 -2 -14 0 -52 5 -85 11 -63 3 -87 -21 -67
-13 11 -45 156 -46 207 0 11 -3 34 -7 51 -3 18 -1 41 5 52 9 18 16 19 43 12
51 -15 118 29 68 45 -29 9 -20 27 15 31 38 5 77 -4 70 -15 -3 -5 -14 -7 -25
-4 -24 6 -28 -18 -6 -36 10 -9 21 -7 44 6 26 15 30 22 25 48 -3 16 -12 35 -20
42 -8 6 -16 30 -17 52 -1 22 -5 43 -9 47 -4 4 -7 22 -7 41 0 18 -5 33 -11 33
-5 0 -7 5 -4 11 4 6 13 8 21 5 17 -6 18 17 3 46 -12 23 -5 35 13 21 7 -6 28
-14 45 -18 28 -6 34 -3 42 17 30 73 93 126 152 127 30 1 43 -6 73 -39z m-5184
7 c70 -34 186 -115 202 -140 8 -12 20 -42 27 -66 l13 -44 -64 -60 c-35 -33
-67 -59 -71 -58 -14 3 -39 -28 -31 -40 10 -17 -16 -28 -49 -22 -28 6 -29 5
-17 -17 12 -22 11 -22 -19 -18 -32 5 -43 -5 -16 -15 12 -5 10 -11 -8 -31 -16
-18 -25 -22 -34 -14 -10 8 -13 6 -13 -6 0 -10 -7 -24 -15 -33 -14 -14 -18 -14
-33 0 -9 8 -40 22 -67 31 -51 16 -85 13 -133 -13 -19 -10 -92 -111 -92 -127 0
-3 -10 -14 -22 -25 -20 -16 -20 -18 -5 -19 21 0 23 -30 1 -30 -28 0 -54 20
-54 43 0 17 10 28 39 40 48 22 70 64 84 162 12 81 6 116 -25 145 -47 44 -157
8 -190 -62 -19 -39 -45 -53 -84 -44 -18 5 -24 13 -24 34 0 35 16 52 51 52 28
0 98 44 254 160 50 37 135 97 190 135 55 37 109 76 120 86 24 24 30 23 85 -4z
m7154 -58 c-3 -6 0 -15 7 -20 8 -4 13 -21 11 -36 -2 -24 3 -30 35 -45 l38 -16
-32 -1 c-17 -1 -35 -5 -38 -11 -3 -5 -18 -10 -33 -10 -15 0 -36 -7 -46 -15
-11 -8 -32 -15 -46 -15 -14 0 -31 -5 -38 -12 -14 -14 -32 27 -32 73 0 38 23
38 59 -1 l28 -31 0 33 c0 17 5 34 12 36 6 2 18 10 25 18 8 8 22 11 32 7 12 -4
15 -3 10 6 -4 6 -17 11 -28 9 -30 -4 -34 20 -6 31 32 13 50 13 42 0z m4516
-141 c0 -55 7 -78 25 -78 16 0 27 -27 14 -36 -5 -3 -16 -3 -24 0 -18 7 -35
-23 -35 -61 0 -15 -4 -34 -9 -42 -10 -16 -14 -11 -48 62 -14 30 -29 47 -40 47
-36 1 -55 25 -48 63 6 28 3 39 -14 56 -20 20 -20 21 -2 21 11 0 23 -4 26 -10
13 -20 70 -10 105 19 41 35 50 27 50 -41z m-12636 29 c15 -19 26 -45 26 -59 0
-14 7 -31 15 -38 8 -7 12 -17 9 -22 -3 -5 3 -16 14 -24 18 -12 19 -19 11 -43
-11 -31 2 -71 21 -71 6 0 10 -10 10 -23 0 -15 9 -29 25 -37 15 -8 25 -22 25
-36 0 -14 12 -31 30 -44 31 -22 60 -76 60 -112 0 -11 -5 -29 -12 -41 -13 -23
-19 -227 -7 -227 6 0 33 -109 31 -127 0 -5 7 -17 17 -28 10 -11 21 -39 25 -63
3 -24 12 -51 18 -61 15 -24 3 -53 -19 -49 -13 2 -25 26 -41 78 -13 41 -27 83
-32 92 -6 10 -10 26 -10 37 0 11 -8 39 -18 63 -10 24 -25 72 -32 108 -13 65
-56 149 -76 150 -19 0 -54 45 -60 77 -4 21 0 41 12 62 15 25 16 34 6 56 -7 14
-12 48 -12 74 0 26 -4 61 -9 77 -5 16 -17 58 -26 94 -9 36 -21 76 -25 90 -28
85 -18 103 24 47z m12981 -22 c47 -29 66 -30 106 -9 29 15 30 15 20 -5 -17
-31 -14 -98 5 -105 31 -12 8 -31 -37 -31 -31 0 -54 -7 -73 -23 -39 -30 -45
-28 -39 17 5 39 5 40 -36 51 -42 11 -56 30 -22 30 38 0 48 30 26 83 -10 23 3
21 50 -8z m-8562 -239 l-5 -108 39 6 c21 4 51 7 67 7 l29 0 -7 98 c-4 54 -11
113 -15 132 -8 35 -5 59 8 59 10 0 29 -83 36 -160 3 -36 11 -86 17 -111 8 -33
8 -58 1 -88 -7 -26 -7 -43 -1 -47 9 -6 -23 -44 -37 -44 -3 0 -11 13 -16 29
-10 27 -40 46 -53 33 -3 -3 -6 -20 -6 -38 0 -24 -7 -36 -27 -50 -44 -28 -54
-41 -60 -81 -7 -48 -21 -65 -45 -57 -10 3 -25 1 -33 -6 -10 -9 -15 -6 -20 10
-8 24 10 51 29 44 20 -8 27 23 10 37 -12 10 -12 14 -2 21 10 7 9 11 -4 18 -10
7 -15 17 -11 27 6 14 7 14 18 -1 11 -15 13 -15 18 5 3 12 3 52 0 89 -4 59 -2
69 15 81 19 14 26 74 33 294 1 36 2 34 14 -25 9 -43 12 -102 8 -174z m3374
187 c-2 -16 -12 -57 -22 -93 -45 -166 -47 -285 -6 -383 6 -16 8 -33 5 -39 -4
-6 -17 20 -29 58 -29 89 -62 161 -91 200 -13 17 -24 34 -24 38 0 9 -39 62 -94
129 -22 26 -37 48 -35 50 47 28 51 28 84 13 30 -15 33 -20 29 -49 -4 -26 -1
-35 17 -46 17 -10 24 -10 27 -2 2 6 16 11 32 11 15 0 33 6 39 14 16 19 -3 66
-29 73 -39 10 -20 32 40 44 61 12 63 11 57 -18z m-2289 -100 c12 -43 22 -88
25 -118 1 -11 6 -27 11 -35 6 -8 14 -35 18 -60 25 -129 29 -158 32 -186 2 -17
7 -37 11 -44 10 -15 -9 -34 -28 -27 -14 5 -21 30 -32 112 -3 22 -8 56 -12 75
-3 19 -7 49 -9 65 -2 17 -10 64 -17 105 -8 41 -12 80 -10 86 2 7 0 15 -6 19
-13 7 -15 45 -3 45 5 0 14 -17 20 -37z m-474 -71 c9 -24 14 -47 12 -51 -3 -4
-27 -13 -54 -20 l-49 -14 4 -51 c3 -28 8 -60 13 -71 8 -20 18 -61 24 -99 4
-30 25 -31 22 -2 -1 14 -5 28 -8 31 -6 6 2 55 9 55 2 0 27 -16 56 -35 28 -19
54 -35 57 -35 11 0 85 71 102 99 24 35 23 99 -1 125 -21 24 -35 93 -20 102 18
11 56 -35 74 -89 16 -46 22 -77 39 -200 2 -15 8 -33 14 -40 5 -7 12 -28 15
-47 3 -19 8 -45 12 -57 10 -32 -38 -49 -185 -62 -69 -7 -148 -15 -176 -18 -50
-5 -51 -5 -59 23 -5 16 -9 40 -10 54 -4 60 -18 171 -31 244 -15 84 -11 138 12
157 11 9 14 7 14 -8 0 -20 36 -60 45 -51 3 3 1 17 -5 32 -17 45 -12 64 18 74
32 11 34 10 56 -46z m3458 -22 c-4 -24 -3 -24 11 -5 9 11 19 17 22 13 4 -4 16
-3 26 3 15 8 21 6 25 -6 4 -9 2 -21 -5 -28 -6 -6 -11 -27 -11 -46 0 -46 -18
-111 -30 -111 -6 0 -10 16 -10 35 0 24 -5 35 -15 35 -8 0 -15 6 -15 13 0 8
-12 19 -27 26 -53 25 -57 27 -61 39 -2 7 10 15 27 18 22 5 31 12 31 26 0 13 6
18 18 16 12 -2 16 -11 14 -28z m-5042 -131 c0 -6 8 -8 18 -5 9 3 44 -2 77 -12
57 -17 60 -20 63 -53 3 -37 35 -144 58 -196 8 -17 14 -35 14 -40 0 -15 25 -63
33 -63 4 0 7 -6 7 -13 0 -7 20 -50 44 -97 25 -47 52 -102 62 -122 9 -21 23
-38 32 -38 14 0 14 -2 -1 -17 -15 -16 -19 -16 -27 -3 -5 8 -12 11 -17 7 -9 -9
8 -39 25 -45 7 -2 12 3 12 11 0 8 9 17 21 20 17 5 20 2 16 -14 -3 -10 -1 -19
4 -19 20 0 7 -31 -17 -40 -14 -6 -27 -10 -28 -10 -2 0 -18 14 -35 31 -23 21
-30 36 -25 47 11 27 5 54 -24 95 -33 49 -72 69 -137 70 -65 1 -92 -17 -127
-85 -23 -44 -27 -49 -28 -27 0 14 7 40 16 57 8 18 19 45 24 62 8 27 7 29 -10
20 -26 -14 -30 -13 -30 11 0 14 5 19 15 16 8 -4 17 -2 20 3 4 6 14 10 24 10
12 0 20 9 24 28 7 37 4 38 -26 8 -25 -25 -77 -36 -77 -17 0 5 -15 16 -32 24
-32 15 -33 15 -41 -5 -6 -16 -11 -18 -19 -10 -8 8 -8 15 1 26 9 11 8 14 -6 12
-14 -1 -18 6 -16 34 4 59 67 87 138 60 21 -8 30 -6 43 6 15 15 14 18 -8 35
-40 30 -43 34 -79 76 -28 34 -41 41 -68 40 -29 -1 -35 -5 -40 -28 -3 -18 -10
-26 -19 -22 -16 6 -19 39 -3 48 6 4 8 13 5 21 -3 7 -1 16 5 19 5 4 7 11 4 16
-4 5 1 12 9 15 9 3 13 11 10 16 -11 18 39 48 79 48 20 0 37 -5 37 -11z m5077
-87 c-10 -10 -17 -34 -17 -54 0 -22 -7 -41 -19 -52 -11 -10 -17 -24 -15 -31 7
-17 -25 -67 -40 -62 -16 5 -13 32 4 32 8 0 16 9 19 20 3 19 3 19 -16 3 -11
-10 -25 -18 -31 -18 -7 0 -12 -13 -12 -30 0 -25 6 -32 35 -44 31 -13 34 -19
31 -46 -5 -44 -11 -45 -35 -8 -37 58 -45 70 -76 102 -16 17 -52 55 -80 84 -37
39 -46 55 -37 64 8 8 15 8 27 -2 12 -10 22 -9 52 5 21 10 52 18 68 17 42 -1
125 18 125 29 0 5 7 9 17 9 15 0 15 -1 0 -18z m-6330 -84 c18 -14 26 -83 13
-108 -6 -11 -23 -25 -37 -31 -22 -8 -32 -5 -65 21 l-39 32 -26 -26 c-30 -30
-70 -43 -84 -29 -7 7 0 14 20 22 16 7 32 20 35 28 6 14 4 14 -16 1 -23 -15
-48 -14 -48 3 0 5 11 9 24 9 15 0 26 7 29 20 3 12 14 20 26 20 31 0 59 21 54
40 -4 15 2 17 49 12 29 -2 58 -9 65 -14z m4531 -40 c2 -4 10 -8 18 -8 8 0 14
-4 14 -9 0 -4 10 -6 23 -4 18 4 27 -4 45 -38 l23 -43 -30 -30 c-26 -26 -32
-28 -47 -15 -15 12 -16 12 -10 -9 8 -24 -4 -27 -63 -16 -30 6 -42 29 -20 36 8
3 8 10 -2 26 -14 22 -14 22 -25 -10 -11 -33 -11 -33 -23 -10 -7 13 -14 41 -17
64 -7 57 22 89 75 81 20 -4 38 -10 39 -15z m-432 -24 c-4 -9 -2 -22 4 -29 6
-7 10 -17 9 -21 -4 -23 4 -34 38 -55 l36 -23 -32 -11 c-44 -14 -72 -52 -61
-81 5 -12 6 -25 3 -28 -12 -12 -44 -6 -49 9 -4 8 -10 15 -15 15 -5 0 -18 9
-30 21 -20 20 -31 21 -93 2 -17 -5 -18 -1 -13 27 8 36 -18 105 -46 129 -35 28
-7 43 36 19 12 -7 42 -18 67 -24 44 -12 45 -12 90 27 48 42 66 49 56 23z
m7230 -47 c27 -24 35 -27 52 -18 27 14 32 14 32 -4 0 -18 5 -19 29 -3 15 9 26
9 45 0 16 -7 28 -8 31 -2 8 13 42 13 50 0 3 -6 -3 -22 -14 -36 -12 -15 -21
-37 -21 -49 0 -17 -9 -26 -32 -35 -24 -9 -28 -14 -16 -17 34 -9 73 20 78 57 5
34 6 35 53 34 62 0 79 -21 71 -84 -6 -43 -44 -100 -67 -100 -5 0 -23 -10 -40
-22 -17 -12 -42 -22 -56 -22 -19 -1 -27 -7 -29 -23 -2 -16 2 -23 13 -23 9 0
13 -4 10 -10 -3 -5 -1 -10 4 -10 6 0 11 5 11 10 0 7 13 9 33 5 55 -10 137 -12
137 -3 0 4 7 8 15 8 8 0 15 7 15 15 0 13 37 36 62 39 14 2 21 17 22 45 1 21
-4 31 -18 35 -10 2 -15 9 -11 15 10 17 45 13 45 -4 0 -9 7 -26 15 -39 25 -37
31 -112 11 -132 -10 -9 -15 -22 -12 -29 2 -7 -12 -20 -35 -31 -21 -11 -39 -22
-39 -26 0 -5 -4 -8 -10 -8 -5 0 -10 8 -10 17 0 25 -13 7 -16 -24 -2 -14 -9
-33 -17 -41 -13 -12 -20 -10 -57 17 -24 17 -48 31 -53 31 -6 0 -18 6 -26 14
-9 7 -34 18 -56 23 -36 10 -72 22 -169 56 -27 10 -28 11 -10 25 17 12 15 13
-21 7 -32 -5 -60 1 -125 25 -47 16 -98 40 -115 51 l-30 21 30 -7 c52 -12 125
-17 150 -11 30 8 78 53 92 88 7 14 10 40 8 58 -4 33 -42 118 -72 160 l-17 25
24 -20 c14 -11 39 -32 56 -48z m-7952 -32 c26 -18 27 -39 1 -29 -12 5 -14 0
-9 -27 4 -19 11 -39 15 -45 5 -6 3 -16 -3 -22 -9 -9 -9 -15 1 -24 6 -7 15 -13
19 -14 4 0 20 -6 35 -12 16 -7 33 -10 37 -7 12 7 8 45 -5 45 -14 1 -59 39 -53
45 7 7 38 -5 38 -14 0 -8 70 -5 78 4 3 3 -2 5 -12 5 -14 0 -15 3 -5 21 l11 21
22 -21 c20 -21 20 -23 3 -32 -9 -6 -15 -14 -12 -20 4 -5 3 -14 -1 -21 -8 -12
-15 -74 -17 -136 0 -19 -5 -31 -11 -29 -6 2 -10 17 -9 32 2 21 -1 25 -9 17 -8
-8 -19 -1 -40 26 -36 45 -54 52 -87 36 -35 -17 -91 -27 -91 -17 1 16 28 44 41
41 8 -2 13 3 11 11 -2 7 3 21 11 30 20 22 30 91 13 91 -13 0 -56 53 -56 69 0
13 49 -2 84 -24z m4186 -120 c0 -2 -11 -15 -24 -28 -12 -13 -25 -29 -28 -37
-3 -9 -27 -14 -86 -15 -45 -1 -85 -4 -88 -8 -4 -3 9 -28 29 -54 46 -64 53 -88
32 -119 -9 -13 -13 -29 -10 -35 4 -5 1 -17 -6 -25 -11 -13 -10 -18 4 -25 27
-15 20 -26 -18 -31 -34 -4 -43 1 -28 16 4 4 6 22 5 41 -2 18 1 36 7 40 24 14
11 66 -29 118 -22 29 -47 59 -55 68 -8 9 -15 19 -15 22 0 3 50 6 112 6 l112 0
30 36 c24 29 56 47 56 30z m1652 -305 c73 -72 140 -130 151 -130 10 0 16 -4
13 -9 -3 -5 3 -19 13 -32 17 -21 22 -22 45 -11 37 16 39 15 16 -8 -14 -14 -27
-18 -49 -14 -22 5 -43 -1 -75 -19 -51 -28 -59 -23 -21 13 27 25 32 41 13 38
-7 -2 -12 5 -10 15 2 12 -4 17 -21 17 -17 0 -24 5 -23 17 1 11 -10 21 -32 28
-18 6 -43 20 -55 30 -12 11 -23 18 -24 17 -12 -10 -23 7 -37 62 -10 35 -24 75
-31 90 -8 14 -12 26 -10 26 2 0 64 -58 137 -130z m-9265 44 c15 -4 22 -15 25
-42 3 -20 0 -42 -6 -47 -16 -15 -66 -17 -83 -4 -7 7 -16 9 -19 6 -12 -11 6
-24 42 -30 56 -9 123 -46 130 -71 4 -19 -29 -113 -45 -126 -3 -3 -14 -22 -24
-43 -15 -33 -19 -36 -37 -27 -11 6 -20 16 -20 23 0 7 -14 26 -30 44 -17 18
-30 37 -30 42 0 17 -47 13 -88 -8 -38 -20 -82 -70 -82 -94 0 -25 27 -39 60
-32 22 5 30 3 30 -8 0 -7 9 -22 20 -32 11 -10 16 -23 13 -29 -9 -13 -14 -34
-16 -58 -2 -22 -52 -25 -60 -4 -4 9 -19 14 -37 14 -22 -1 -29 -5 -26 -15 7
-17 -19 -17 -37 2 -8 8 -16 13 -18 12 -2 -1 -3 -1 -2 1 0 2 -5 15 -12 29 -10
18 -11 32 -4 45 7 12 6 18 -1 18 -16 0 -1 47 32 108 17 28 34 49 40 46 6 -4 8
1 3 15 -4 15 -2 21 9 21 8 0 13 6 10 13 -2 7 5 22 16 34 11 12 17 29 14 37 -3
9 -1 16 5 16 6 0 17 15 25 34 17 41 27 47 74 51 49 3 89 19 73 29 -9 6 -9 11
0 22 13 15 23 17 56 8z m-347 -57 c0 -13 -29 -80 -65 -149 -36 -70 -65 -132
-65 -139 0 -7 -6 -20 -14 -28 -8 -9 -28 -47 -44 -84 -38 -90 -86 -157 -112
-157 -32 0 -33 -2 59 175 23 43 46 84 51 89 17 17 12 36 -7 29 -17 -7 -17 -6
0 11 9 9 17 29 18 44 0 23 1 24 8 7 7 -18 8 -18 23 5 24 38 68 124 68 133 0 4
12 25 26 47 30 45 54 52 54 17z m4456 -17 c6 -39 7 -40 50 -40 53 0 62 -12 27
-39 -30 -24 -43 -81 -18 -81 8 0 15 -7 15 -15 0 -21 -5 -19 -55 15 -24 17 -47
30 -52 30 -5 0 -32 -16 -61 -35 -28 -20 -52 -31 -52 -27 0 5 9 30 21 56 24 56
19 80 -24 107 l-32 19 27 0 c15 0 30 -4 33 -10 8 -13 75 -13 75 -1 0 20 20 61
30 61 5 0 13 -18 16 -40z m3444 -8 c0 -5 19 -8 43 -6 23 1 33 0 22 -3 -24 -6
-35 -21 -35 -48 0 -21 -43 -146 -62 -180 -6 -11 -12 -45 -13 -75 -1 -30 -8
-65 -16 -78 -12 -20 -12 -26 4 -53 9 -17 17 -38 17 -47 0 -19 -69 -92 -87 -92
-7 0 -13 -4 -13 -10 0 -5 -16 -24 -35 -41 -19 -18 -32 -36 -29 -40 3 -5 -14
-62 -36 -126 -23 -65 -48 -138 -57 -163 -34 -100 -62 -150 -84 -150 -17 0 -19
3 -10 14 7 8 13 29 13 46 1 18 9 48 19 67 10 19 16 40 13 48 -3 7 6 33 20 58
15 25 26 56 26 69 0 13 7 32 15 42 8 11 13 27 10 36 -3 9 1 33 9 52 9 20 12
38 9 42 -11 10 -18 102 -12 148 5 30 44 78 87 103 20 12 28 23 25 36 -4 13 3
22 21 30 18 8 26 20 26 37 0 17 4 23 14 19 10 -4 13 -1 9 9 -3 8 -1 20 5 27 5
6 13 23 17 36 6 18 4 22 -6 15 -10 -6 -9 -1 2 16 18 27 30 78 31 125 0 28 12
44 31 45 4 0 7 -4 7 -8z m-1499 -85 c13 3 32 12 41 21 16 13 17 11 11 -23 -5
-32 -2 -40 22 -61 32 -28 32 -29 -15 -41 -25 -6 -39 -18 -50 -41 -8 -17 -18
-32 -22 -32 -8 0 -12 31 -9 58 2 12 -10 16 -41 13 -22 -3 -23 7 -1 31 15 17
15 21 -2 56 -11 20 -21 41 -24 46 -2 5 12 0 31 -12 22 -14 43 -19 59 -15z
m-1241 -82 l26 -25 36 25 c61 42 120 30 134 -27 4 -20 2 -29 -8 -33 -10 -4
-13 -15 -10 -32 3 -18 1 -24 -7 -19 -6 4 -11 2 -11 -5 0 -7 -3 -9 -7 -6 -3 4
-16 -2 -27 -12 -31 -29 -138 -35 -185 -11 -46 24 -61 50 -68 116 -8 74 4 88
60 68 23 -8 53 -26 67 -39z m5534 -6 c31 -33 54 -64 51 -69 -3 -4 5 -15 18
-23 44 -30 86 -73 96 -100 7 -17 18 -27 30 -27 17 0 44 -31 46 -51 0 -3 8 -13
18 -23 22 -22 22 -25 -3 -19 -11 3 -29 18 -40 34 -11 15 -37 38 -58 50 -20 12
-44 30 -53 38 -8 9 -34 33 -57 53 -25 23 -39 43 -36 52 3 9 -14 34 -45 65 -50
50 -64 81 -37 81 8 0 39 -27 70 -61z m-8318 -67 c59 -54 150 -122 223 -166 60
-37 66 -38 98 -26 26 9 38 9 46 1 14 -14 -20 -41 -42 -33 -11 4 -9 -2 5 -20
13 -18 20 -22 22 -12 5 21 38 17 54 -8 9 -13 19 -19 27 -14 9 6 10 11 2 19
-22 22 -11 33 29 29 29 -3 40 0 41 9 0 8 4 4 9 -8 11 -26 30 -31 30 -8 0 8 7
15 15 15 9 0 15 -10 15 -26 0 -14 -4 -23 -9 -19 -15 8 -25 -15 -12 -28 6 -6
11 -21 11 -34 0 -12 8 -26 17 -32 14 -7 8 -11 -28 -19 -32 -7 -37 -10 -17 -11
15 -1 29 -5 33 -10 8 -13 68 -11 77 3 5 8 8 7 8 -1 0 -7 10 -13 23 -13 26 0
54 -16 45 -25 -6 -6 -21 -8 -110 -13 -34 -2 -37 -22 -4 -22 14 0 27 -4 30 -9
7 -11 -22 -37 -51 -45 -33 -11 -29 -30 4 -21 15 3 30 10 33 15 3 5 29 11 58
13 29 3 60 11 68 18 14 12 16 11 13 -6 -3 -11 -9 -20 -14 -21 -6 0 -17 -3 -25
-7 -8 -3 -27 -8 -42 -11 -16 -4 -28 -13 -28 -21 0 -15 -49 -21 -120 -17 -18 1
-26 -4 -26 -16 -1 -9 -7 -62 -13 -117 -12 -95 -18 -153 -20 -202 -1 -13 -5
-23 -10 -23 -10 0 -51 79 -51 97 0 6 -6 16 -14 22 -13 11 -35 48 -64 108 -41
86 -78 156 -83 159 -7 4 -126 24 -172 28 -34 4 -46 14 -27 26 12 8 10 10 -7
10 -29 0 -31 30 -3 37 51 14 -4 31 -75 23 -25 -3 59 78 110 106 40 21 44 43
17 82 -11 15 -33 56 -51 92 -17 36 -44 85 -59 110 -55 88 -50 101 14 42z
m8065 -38 c28 -26 49 -30 67 -12 6 6 15 9 19 5 3 -4 -2 -13 -12 -21 -31 -23
-6 -80 71 -160 36 -37 63 -70 60 -73 -3 -3 -37 23 -76 57 -39 34 -73 61 -75
58 -3 -3 24 -35 60 -72 50 -51 65 -74 65 -96 0 -16 8 -36 17 -46 16 -16 16
-16 -5 -10 -35 11 -27 -3 41 -70 84 -84 147 -153 147 -160 0 -3 7 -12 15 -20
18 -18 20 -34 4 -34 -11 0 -64 53 -364 364 -88 91 -168 166 -177 166 -39 0
-26 49 19 69 30 14 40 14 26 0 -16 -16 4 -48 68 -104 32 -27 56 -55 54 -62 -2
-7 4 -14 13 -17 9 -3 33 -26 52 -50 19 -24 44 -49 54 -56 18 -11 19 -9 13 26
-5 29 -22 53 -76 107 -56 55 -70 74 -65 92 4 16 -6 32 -43 68 -26 26 -54 47
-61 47 -10 0 -10 4 0 20 16 26 52 19 89 -16z m-446 16 c4 -6 1 -17 -5 -25 -12
-14 0 -35 55 -98 9 -10 14 -25 11 -33 -3 -9 -1 -24 5 -35 9 -19 9 -19 -10 -10
-11 6 -23 16 -26 21 -3 6 -15 10 -26 10 -15 0 -19 5 -15 18 4 12 -3 21 -24 30
-29 13 -41 32 -20 32 6 0 10 5 10 11 0 6 -8 8 -19 4 -11 -3 -22 -2 -25 3 -3 5
-26 6 -51 2 -24 -4 -47 -5 -50 -2 -2 3 15 20 38 39 34 27 48 33 74 28 17 -3
34 -1 38 5 8 13 32 13 40 0z m-12515 -35 c0 -6 14 -33 32 -59 l31 -48 56 7
c31 3 65 8 76 11 11 3 16 2 10 -3 -6 -4 -16 -20 -24 -35 -8 -16 -18 -28 -23
-28 -14 0 -9 -27 12 -53 28 -36 25 -40 -22 -34 -35 5 -48 1 -69 -16 -15 -12
-30 -32 -34 -45 -9 -31 -20 -21 -35 35 -17 62 -22 67 -70 82 -47 14 -50 25
-11 45 23 12 29 24 35 62 3 26 6 62 6 82 0 29 2 33 15 22 8 -7 15 -18 15 -25z
m8380 15 c48 -24 59 -25 121 -3 53 19 66 15 50 -15 -20 -38 -13 -74 22 -104
l32 -29 -36 6 c-44 7 -82 -9 -100 -41 -7 -13 -22 -31 -35 -39 -22 -14 -22 -14
-31 48 l-8 62 -53 21 c-69 28 -71 31 -28 49 31 13 35 18 26 35 -19 36 -14 38
40 10z m-4100 -2 c39 -9 63 -37 62 -72 -1 -27 2 -34 13 -29 8 3 15 9 15 14 0
5 11 3 25 -3 14 -6 25 -15 25 -20 0 -19 -21 -48 -35 -48 -27 0 -15 -18 16 -25
37 -8 36 -33 -3 -54 -25 -15 -29 -14 -52 8 -14 13 -28 39 -32 57 l-6 33 -57
-5 c-50 -5 -58 -4 -78 17 -32 35 -31 60 2 102 30 39 40 41 105 25z m1880 -16
c9 -4 15 -22 16 -46 1 -21 5 -41 10 -45 5 -3 29 -46 54 -95 26 -50 56 -95 70
-104 14 -9 27 -17 29 -19 8 -6 -38 -43 -54 -43 -8 0 -15 -4 -15 -10 0 -14 12
-13 47 5 26 13 35 13 62 2 17 -7 29 -16 25 -19 -3 -3 2 -30 10 -59 19 -64 20
-59 -2 -59 -10 0 -27 -6 -37 -14 -10 -7 -27 -11 -37 -8 -10 2 -18 0 -18 -6 0
-5 7 -9 16 -8 9 0 19 -5 21 -11 8 -21 -21 -15 -58 12 -41 31 -49 48 -42 100 4
32 1 44 -16 59 -13 11 -21 32 -21 50 0 17 -7 40 -15 50 -8 11 -15 28 -15 37 0
10 -3 19 -7 21 -5 2 -21 28 -37 58 -16 30 -40 70 -53 88 -32 43 -24 72 20 71
18 0 39 -3 47 -7z m2710 -72 c0 -6 15 -27 34 -46 27 -28 39 -34 59 -29 28 7
46 -10 28 -28 -16 -16 -14 -70 4 -93 18 -23 19 -40 3 -27 -7 5 -32 15 -56 22
-39 11 -48 10 -84 -8 -23 -11 -45 -18 -50 -15 -4 3 -1 21 7 41 8 19 15 37 15
39 0 2 -17 15 -37 29 l-38 25 36 0 c38 0 66 21 54 40 -9 15 3 60 15 60 6 0 10
-5 10 -10z m-5321 -34 c11 -13 8 -32 -18 -91 -5 -11 -27 -69 -49 -130 -105
-288 -96 -270 -131 -273 -37 -4 -38 4 -11 75 l20 52 -35 -17 c-19 -9 -35 -23
-35 -29 0 -7 -4 -13 -9 -13 -5 0 -7 -8 -5 -17 3 -10 -1 -26 -9 -37 -13 -18
-15 -18 -41 5 -20 18 -26 29 -21 47 3 13 1 30 -5 37 -8 10 3 13 52 14 54 1 66
4 86 26 12 15 22 33 22 41 0 8 4 22 9 32 5 9 16 33 25 52 9 19 25 49 35 66
l19 32 -23 12 c-26 14 -45 7 -45 -16 0 -9 -7 -14 -17 -12 -13 2 -17 11 -15 30
2 18 -4 31 -20 43 l-23 17 24 -7 c18 -5 22 -4 16 6 -6 9 -2 11 16 6 13 -4 38
-7 54 -7 l30 -1 -25 -10 c-24 -10 -24 -11 -6 -25 31 -23 39 -17 69 46 28 60
45 72 66 46z m4093 -203 c32 -45 66 -83 76 -85 9 -2 30 -1 47 4 19 5 31 4 33
-2 3 -8 8 -8 17 0 7 5 23 9 36 8 18 -2 23 1 21 14 -2 11 9 23 29 33 34 18 49
14 30 -9 -7 -9 -10 -25 -6 -38 4 -16 3 -19 -3 -9 -13 18 -25 -2 -17 -28 3 -10
-3 -28 -13 -42 -34 -44 -45 -84 -30 -108 7 -12 16 -21 20 -21 5 0 8 -9 8 -20
0 -11 3 -19 8 -18 11 4 63 -32 101 -69 18 -18 46 -41 62 -50 16 -10 29 -20 29
-24 0 -12 -187 25 -200 40 -3 3 -24 16 -48 29 -40 22 -42 22 -48 5 -6 -19 -12
-31 -37 -78 -8 -16 -24 -49 -33 -72 -10 -23 -21 -40 -25 -37 -5 2 -6 11 -3 18
3 7 -4 50 -15 95 -11 44 -23 103 -27 131 -6 46 -10 51 -48 70 -23 11 -51 20
-62 20 -11 0 -25 5 -31 11 -6 6 -32 11 -57 11 -25 1 -46 5 -46 9 0 4 -14 9
-32 11 -17 2 -33 9 -36 16 -3 9 3 11 22 6 19 -4 26 -3 24 6 -2 8 35 24 100 43
l104 31 -7 35 c-3 20 -7 47 -9 61 -1 14 -8 37 -14 51 -6 15 -14 44 -17 65 l-6
39 22 -35 c13 -19 49 -72 81 -117z m7944 76 c36 -33 32 -74 -8 -99 -18 -11
-51 -25 -74 -31 -40 -10 -41 -12 -40 -52 1 -64 -8 -77 -51 -77 -56 0 -133 57
-133 98 0 35 80 125 143 161 63 36 124 37 163 0z m-14735 -28 c-6 -4 -6 -20
-1 -41 5 -23 8 -27 9 -13 1 22 18 40 28 30 2 -3 0 -30 -6 -59 -11 -50 -15 -56
-56 -76 -50 -24 -51 -23 -30 18 12 23 22 30 46 30 20 0 29 4 26 13 -5 13 -9
13 -53 -4 -25 -10 -34 -9 -57 6 -50 32 -27 83 41 92 31 4 40 9 33 16 -20 20
-11 30 9 12 11 -10 16 -21 11 -24z m12376 2 c-2 -25 2 -28 30 -31 23 -2 30 -7
26 -17 -3 -9 16 -36 46 -67 91 -94 140 -162 128 -175 -9 -8 -190 166 -210 203
-7 12 -12 13 -23 3 -8 -6 -18 -8 -22 -4 -4 4 -1 10 6 12 19 7 14 31 -9 44
l-21 11 23 24 c12 13 24 24 25 24 2 0 2 -12 1 -27z m-373 -122 c25 -17 48 -31
53 -31 17 0 322 -321 317 -334 -3 -7 11 -25 31 -40 25 -19 34 -33 30 -45 -3
-10 2 -24 11 -31 8 -8 24 -30 34 -51 17 -32 17 -39 5 -49 -16 -13 -36 -5 -31
13 1 7 1 9 -1 5 -3 -5 -16 -8 -29 -8 -51 0 -76 87 -38 131 12 13 11 19 -9 37
l-24 22 -44 -30 c-24 -16 -51 -30 -59 -30 -8 0 -26 -9 -40 -20 -14 -11 -33
-20 -42 -20 -20 0 -108 100 -108 123 0 9 -8 21 -19 26 -10 6 -21 21 -24 33 -4
13 -14 32 -24 43 -43 48 -91 123 -98 154 -5 24 -2 42 11 66 11 20 14 39 9 51
-5 13 -9 15 -12 7 -3 -7 -9 -13 -14 -13 -5 0 -1 15 9 34 l17 35 22 -24 c13
-13 43 -38 67 -54z m-10758 12 l27 -27 -33 -25 c-19 -15 -54 -43 -78 -63 -45
-39 -62 -46 -62 -26 0 9 -3 9 -12 0 -10 -10 -10 -15 1 -21 9 -6 10 -11 2 -15
-6 -4 -11 -2 -11 3 0 6 -4 11 -10 11 -5 0 -10 -11 -10 -24 0 -13 -14 -39 -31
-57 -24 -26 -34 -31 -47 -22 -9 5 -19 19 -20 29 -3 15 -1 17 9 7 18 -18 49
-16 49 2 0 8 -4 15 -10 15 -5 0 -10 5 -10 11 0 8 4 8 15 -1 21 -17 39 -3 20
16 -21 22 -19 44 5 44 14 0 20 7 20 21 0 15 -5 19 -15 15 -20 -7 -19 8 1 28
17 18 40 21 48 7 12 -19 46 -18 74 3 26 19 28 24 19 50 -7 21 -6 30 4 37 21
13 26 11 55 -18z m9945 -153 c6 0 8 -4 4 -9 -3 -5 13 -30 35 -56 22 -26 48
-61 57 -78 28 -55 65 -97 84 -97 23 0 24 -13 4 -30 -23 -19 -18 -40 10 -40 27
0 75 19 75 31 0 4 16 9 35 11 28 3 35 1 33 -11 -1 -9 3 -26 10 -38 15 -28 0
-65 -23 -57 -8 4 -16 10 -16 15 -1 5 -2 13 -3 19 -3 21 -25 32 -55 25 -17 -4
-31 -9 -31 -13 0 -13 42 -91 56 -102 7 -7 14 -19 14 -26 0 -8 4 -14 9 -14 7 0
31 -51 31 -66 0 -2 -11 -4 -25 -4 -18 0 -28 9 -41 35 -9 19 -20 35 -24 35 -4
0 -13 14 -20 31 -11 25 -18 30 -37 26 -21 -4 -24 -2 -19 19 7 26 -9 45 -52 63
-23 10 -28 17 -24 37 4 20 0 24 -19 24 l-23 0 21 15 22 16 -44 58 c-25 33 -45
62 -45 66 0 3 -19 36 -43 73 -62 96 -61 93 -46 103 10 6 24 -2 47 -26 18 -19
38 -35 43 -35z m-2481 -37 c0 -7 7 -13 15 -13 8 0 17 -12 20 -27 11 -54 56
-208 66 -226 6 -11 8 -21 5 -24 -3 -3 -1 -14 5 -24 13 -25 5 -24 -26 5 l-26
24 -26 -24 c-26 -24 -73 -33 -73 -14 0 6 5 10 10 10 20 0 68 52 73 78 3 15 -2
56 -11 91 -15 55 -22 67 -54 88 -35 21 -48 50 -32 66 12 11 54 3 54 -10z
m1899 1 c23 3 41 3 41 0 0 -8 -40 -44 -49 -44 -3 0 -15 -18 -25 -41 -16 -33
-17 -42 -7 -49 8 -4 10 -13 7 -19 -10 -16 -24 -13 -29 7 -4 13 -5 11 -6 -5 0
-13 -4 -23 -8 -23 -24 1 -165 57 -164 65 0 15 111 36 111 21 0 -7 3 -7 8 -1 4
6 16 15 27 21 11 6 21 22 23 35 5 43 12 55 22 40 6 -10 19 -12 49 -7z m-4958
-106 c7 -18 24 -41 36 -51 13 -10 23 -24 23 -30 0 -6 14 -23 31 -38 31 -27 54
-61 104 -156 23 -43 26 -55 15 -68 -17 -20 -56 -19 -63 3 -4 9 -21 43 -39 74
-94 162 -149 270 -144 283 9 24 23 17 37 -17z m714 16 c9 -4 20 -17 25 -30 5
-12 33 -40 62 -62 29 -22 76 -61 104 -88 56 -53 137 -114 152 -114 5 0 23 -13
40 -30 18 -16 38 -30 45 -30 8 0 14 -7 14 -15 0 -8 -7 -15 -14 -15 -8 0 -12
-3 -9 -8 2 -4 -7 -12 -20 -19 -15 -7 -26 -7 -30 -2 -3 6 -15 4 -27 -4 -17 -11
-28 -12 -47 -4 -14 5 -33 9 -42 8 -10 -1 -18 3 -18 8 0 6 4 11 9 11 4 0 13 23
19 52 8 45 8 54 -7 65 -21 16 -31 16 -61 -2 -14 -7 -40 -21 -57 -29 -24 -11
-33 -22 -33 -39 0 -30 12 -40 67 -56 40 -11 67 -31 43 -31 -17 0 -70 -43 -70
-57 0 -7 -3 -13 -7 -14 -47 -5 -76 -2 -84 7 -5 7 -12 62 -15 123 -2 61 -8 121
-13 133 -5 13 -12 52 -16 88 -3 36 -13 86 -20 113 -8 26 -12 47 -10 47 2 0 11
-3 20 -6z m-4188 -28 c-4 -10 -1 -13 9 -9 16 6 46 -26 37 -40 -3 -5 -14 -6
-25 -4 -11 3 -17 3 -14 0 3 -3 1 -14 -5 -25 -16 -30 -2 -60 29 -57 15 1 38 -3
52 -8 40 -17 72 25 50 66 -9 17 -6 23 15 37 25 16 27 16 47 -3 24 -25 19 -50
-21 -90 -51 -50 -174 -197 -194 -230 -10 -18 -23 -33 -27 -33 -5 0 -10 -8 -12
-17 -2 -10 -4 80 -3 199 l0 217 25 4 c14 2 29 5 34 6 4 0 6 -6 3 -13z m3154
-118 c31 -33 40 -65 40 -135 0 -87 -20 -124 -81 -153 -28 -13 -57 -31 -66 -41
-9 -10 -21 -16 -28 -13 -7 3 -18 -7 -26 -21 -13 -25 -30 -34 -30 -15 0 6 -6
10 -14 10 -8 0 -17 6 -19 13 -4 9 -8 8 -16 -3 -9 -12 -13 -13 -20 -1 -5 8 -24
12 -52 10 -38 -2 -92 8 -149 29 -8 3 -18 6 -21 6 -34 5 -94 157 -83 212 22
112 197 129 305 28 14 -13 29 -24 35 -24 5 0 28 20 52 44 74 75 134 94 173 54z
m8303 -123 c24 -16 39 -45 50 -96 8 -37 -1 -41 -45 -19 -42 22 -57 13 -38 -22
11 -21 11 -22 -4 -9 -12 10 -21 10 -30 3 -15 -13 -77 -13 -93 0 -13 9 -8 45 9
66 6 8 6 12 -2 12 -6 0 -11 7 -11 15 0 8 4 15 9 15 5 0 16 6 23 13 15 16 64
35 91 36 10 1 28 -6 41 -14z m-5210 -47 c-3 -10 -6 -33 -6 -50 -1 -34 -8 -42
-70 -84 -21 -13 -38 -28 -38 -33 0 -14 30 -7 40 9 7 11 11 11 24 1 13 -11 16
-9 22 13 4 17 13 26 25 26 24 0 24 -14 -1 -42 -57 -65 -63 -76 -31 -58 11 5
22 10 25 10 11 0 76 -111 77 -133 1 -15 3 -17 6 -5 6 23 32 31 40 12 5 -13 7
-13 23 1 15 14 22 14 57 2 34 -12 42 -11 66 3 34 21 73 15 81 -13 5 -21 -21
-50 -36 -41 -5 3 -8 -2 -8 -10 0 -9 4 -16 9 -16 21 0 41 13 41 26 0 8 5 14 11
14 6 0 9 7 6 15 -4 8 -2 17 3 20 5 3 7 19 3 35 -4 23 -2 30 11 30 11 0 16 -9
16 -29 0 -17 5 -33 10 -36 12 -7 14 -45 2 -45 -4 0 -13 -14 -19 -31 -7 -18
-16 -28 -23 -24 -13 8 -52 -24 -44 -37 6 -9 -64 -42 -113 -53 -28 -5 -34 -2
-55 28 -23 34 -58 66 -132 122 -22 17 -64 49 -95 73 -31 24 -83 60 -116 80
-33 20 -82 51 -110 69 -27 18 -53 34 -59 36 -5 2 -7 11 -3 20 6 16 10 15 46
-9 61 -40 140 -43 211 -7 45 23 57 34 64 63 6 19 14 38 19 41 5 4 6 12 3 18
-4 6 -4 16 0 22 10 16 25 -12 18 -33z m-8674 -64 c0 -34 18 -47 69 -48 37 -1
47 -27 33 -83 -16 -60 -46 -93 -84 -93 -22 0 -44 15 -92 63 -67 67 -83 106
-60 149 7 12 10 26 8 30 -2 3 13 20 33 37 l37 31 28 -27 c19 -19 28 -37 28
-59z m3606 11 c13 -4 14 -8 5 -19 -7 -8 -11 -18 -9 -22 1 -5 -2 -39 -6 -76
-12 -108 28 -163 151 -204 70 -24 59 -36 -20 -24 -40 6 -47 4 -47 -10 0 -9 -5
-21 -11 -27 -11 -11 -59 -5 -59 8 0 5 -15 9 -34 9 -40 0 -66 8 -66 22 0 5 4 7
9 4 5 -3 14 1 21 9 9 10 9 15 1 15 -6 0 -11 7 -11 15 0 16 16 20 24 6 3 -5 21
-9 39 -8 32 1 33 2 18 20 -19 22 -57 45 -47 28 4 -6 2 -11 -3 -11 -16 0 -13
62 5 165 12 65 14 90 5 93 -17 6 -13 22 4 17 8 -3 22 -7 31 -10z m5343 -26
c37 -37 39 -51 6 -69 -13 -7 -22 -16 -20 -20 6 -9 -44 -45 -88 -63 -39 -17
-141 -21 -132 -6 4 5 0 12 -9 15 -35 14 6 94 48 94 56 1 135 47 120 71 -3 5 6
9 20 9 14 0 37 -13 55 -31z m1011 -105 c23 -23 24 -26 8 -38 -11 -8 -18 -26
-18 -45 0 -18 -9 -41 -20 -54 -12 -12 -17 -23 -11 -25 10 -3 3 -42 -8 -42 -4
0 -16 7 -27 15 -26 20 -51 19 -63 -4 -15 -27 -94 -71 -128 -71 -36 0 -88 52
-96 94 -2 16 3 53 11 82 15 49 21 56 67 79 100 51 239 55 285 9z m-2732 -55
c12 -19 25 -45 28 -59 2 -14 11 -38 19 -53 8 -16 15 -33 15 -38 0 -5 14 -23
30 -39 17 -16 30 -34 30 -41 0 -6 18 -31 40 -56 22 -25 40 -52 40 -59 0 -7 8
-20 17 -29 12 -13 14 -21 6 -34 -8 -12 -6 -22 9 -41 40 -53 72 -107 95 -162
28 -69 28 -78 6 -78 -17 0 -70 73 -107 148 -9 17 -20 32 -25 32 -4 0 -16 17
-27 39 -23 47 -51 62 -81 43 -29 -18 -29 -33 2 -82 14 -22 25 -43 25 -47 0 -5
12 -26 26 -47 17 -24 24 -46 21 -63 -3 -17 -1 -23 9 -19 8 3 14 -1 14 -10 0
-23 -23 -11 -38 20 -8 15 -20 30 -28 33 -8 3 -14 13 -14 22 0 10 -11 28 -25
41 -14 13 -25 31 -25 40 0 9 -13 29 -29 44 -20 19 -27 34 -24 50 6 28 -11 41
-51 38 -25 -2 -27 -1 -16 13 7 9 19 14 27 11 8 -3 16 1 19 9 4 8 14 15 23 15
9 0 25 7 35 15 10 8 24 12 29 8 19 -12 -1 24 -72 130 l-71 104 -67 -5 c-65 -5
-126 -31 -137 -58 -5 -14 23 -104 39 -124 22 -27 76 -130 68 -130 -9 0 -53 50
-53 61 0 20 -82 129 -93 122 -8 -5 -8 -8 1 -11 7 -2 12 -13 12 -25 -1 -21 -1
-21 -15 3 -8 14 -14 41 -13 61 1 23 -6 47 -20 66 -12 17 -22 36 -22 42 0 6 -7
11 -15 11 -8 0 -15 9 -15 20 0 16 7 20 34 20 29 0 36 -5 50 -35 20 -41 34 -52
42 -31 3 9 14 16 24 16 27 0 34 19 16 39 -9 10 -16 23 -16 29 0 10 45 62 54
62 1 0 9 -18 16 -39 7 -22 21 -41 31 -44 10 -3 18 -2 17 2 -1 3 3 16 10 28 7
13 10 34 6 48 -5 21 -3 25 17 25 13 0 30 4 38 9 10 7 18 4 25 -8 6 -10 21 -33
34 -52z m-3188 -45 c-26 -102 -25 -164 1 -221 25 -54 43 -75 86 -97 62 -31
152 -14 214 40 21 19 29 18 29 -5 0 -10 -16 -32 -36 -47 -38 -30 -66 -52 -239
-194 -126 -104 -238 -211 -262 -250 -17 -30 -55 -41 -68 -20 -3 6 -18 10 -33
10 -31 1 -109 55 -93 65 6 3 11 10 11 16 0 13 -38 11 -42 -2 -3 -8 -13 -9 -28
-4 -22 7 -23 8 -6 21 10 7 15 18 11 24 -4 6 -1 17 5 25 9 11 9 15 1 15 -6 0
-11 -4 -11 -10 0 -5 -9 -10 -20 -10 -18 0 -20 5 -18 37 2 31 -1 40 -19 48 -13
5 -23 13 -23 17 0 3 10 8 23 11 22 4 22 4 -3 14 -20 8 -27 7 -33 -4 -5 -8 -6
-17 -3 -20 7 -7 -13 -33 -25 -33 -5 0 -9 9 -9 21 0 12 -5 19 -12 17 -20 -7
-21 -38 -2 -59 9 -10 13 -19 8 -19 -5 0 -28 21 -52 46 -44 48 -47 69 -16 105
8 8 14 25 14 36 0 11 7 26 15 33 8 7 15 19 15 26 0 8 7 14 16 14 11 0 15 6 11
20 -6 23 5 26 22 6 8 -10 9 -16 1 -21 -23 -14 -7 -22 35 -17 30 3 45 1 45 -7
0 -6 -15 -11 -34 -11 -31 0 -34 -3 -44 -41 -11 -43 -7 -47 63 -65 22 -6 23 -4
14 33 -12 51 -12 52 9 48 9 -1 11 0 4 2 -16 6 -10 28 6 28 7 0 11 5 10 10 -2
6 -6 9 -10 7 -5 -1 -8 2 -8 8 0 6 -13 10 -30 10 -16 0 -30 4 -30 10 0 5 -10
18 -22 29 -17 17 -19 23 -8 36 7 8 17 15 22 15 14 0 22 -31 10 -39 -6 -4 -7
-12 -3 -20 7 -11 13 -10 35 4 15 10 26 13 26 6 0 -14 23 -14 37 0 8 8 8 20 3
35 -7 18 -6 22 5 17 8 -3 15 0 15 6 0 6 7 11 15 11 19 0 19 -14 0 -34 -14 -14
-22 -115 -12 -156 2 -8 7 -33 12 -55 4 -22 12 -45 16 -51 5 -6 6 -20 2 -30 -6
-17 -5 -17 10 -5 18 14 52 7 42 -9 -9 -14 -5 -13 40 10 22 11 48 20 60 20 20
1 55 22 55 34 0 3 -9 6 -19 6 -11 0 -23 5 -26 10 -3 6 5 10 19 10 13 0 26 -5
28 -12 3 -7 12 -9 24 -4 26 10 7 19 -74 36 -34 7 -65 17 -68 22 -3 5 -15 6
-26 2 -18 -5 -20 -3 -15 15 3 14 0 21 -9 21 -10 0 -14 14 -14 53 0 61 15 93
53 115 28 17 29 16 51 -10 26 -33 36 -35 36 -7 0 12 -8 23 -20 26 -11 3 -20
13 -20 22 0 13 -8 16 -41 13 -32 -3 -40 -1 -37 9 3 8 13 15 24 17 10 2 33 10
51 18 17 8 41 14 52 14 12 0 24 7 28 16 4 11 13 14 29 10 19 -5 34 3 70 36 53
49 84 104 84 150 1 25 3 29 10 17 6 -10 2 -43 -10 -95z m3689 -114 c9 0 29 7
45 15 35 18 43 14 20 -10 -13 -13 -14 -19 -5 -25 7 -4 11 -16 10 -26 -3 -19
30 -58 67 -80 38 -22 25 -31 -28 -18 -69 18 -78 18 -78 -5 0 -27 -10 -51 -21
-51 -6 0 -18 20 -29 45 -17 39 -28 50 -75 71 -56 26 -64 44 -19 44 35 0 37 17
14 85 l-20 60 51 -52 c28 -29 59 -53 68 -53z m3201 49 c0 -16 87 -100 138
-134 23 -15 42 -30 42 -34 0 -3 17 -17 37 -31 21 -14 46 -32 56 -40 17 -14
132 -82 229 -134 53 -29 65 -43 50 -58 -7 -7 -17 -4 -31 9 -11 10 -46 27 -78
38 -32 10 -65 25 -74 32 -24 20 -34 15 -14 -7 18 -19 17 -20 -6 -20 -27 0 -87
-34 -106 -59 -6 -9 -15 -43 -18 -76 -5 -47 -2 -74 14 -122 12 -34 21 -65 21
-69 0 -3 -18 17 -39 44 -70 88 -188 113 -270 57 -73 -49 -86 -75 -84 -158 l2
-72 -20 63 c-19 59 -19 64 -3 98 11 24 14 38 7 42 -7 5 -6 11 3 20 12 10 14
10 14 -3 0 -19 14 -19 30 0 9 11 9 15 1 15 -7 0 -10 4 -6 10 3 5 12 7 19 4 8
-3 17 0 21 5 3 6 10 9 15 6 5 -3 11 -1 15 5 3 5 17 10 31 10 13 0 24 3 24 8 0
12 50 31 66 25 10 -4 17 2 21 16 3 13 11 20 19 17 19 -7 18 22 -1 41 -14 14
-18 13 -40 -11 -30 -32 -31 -32 -39 -1 -6 24 -26 36 -26 15 0 -5 -7 -10 -15
-10 -26 0 -75 29 -75 44 0 8 -4 16 -8 18 -5 2 -12 15 -15 29 -5 20 0 31 21 51
31 29 119 60 128 46 3 -5 19 -6 34 -3 24 5 32 2 47 -21 10 -15 18 -34 18 -42
0 -9 6 -17 13 -20 22 -7 10 61 -15 86 -13 12 -28 22 -33 22 -5 0 -32 14 -58
30 -27 17 -61 30 -75 30 -36 0 -57 10 -57 27 0 18 -39 8 -57 -14 -8 -10 -13
-11 -18 -3 -11 17 -37 -27 -30 -49 4 -14 0 -23 -13 -30 -23 -12 -33 -5 -25 16
3 8 0 18 -6 23 -17 10 -4 80 15 80 8 0 14 5 14 11 0 5 4 8 9 4 5 -3 12 -1 16
5 3 5 13 10 21 10 17 0 19 -27 2 -32 -7 -3 -8 -7 -2 -10 5 -4 21 2 34 13 21
16 22 20 10 28 -8 5 -17 8 -21 6 -8 -5 -49 32 -49 45 0 5 5 12 12 16 7 5 8 3
3 -6 -6 -10 -4 -12 9 -7 12 5 20 -1 28 -18 6 -14 19 -25 30 -25 23 0 24 26 1
38 -14 9 -14 11 5 21 20 11 22 9 22 -13 0 -27 15 -43 25 -27 3 6 13 8 23 5 13
-5 14 -4 3 4 -7 5 -10 15 -6 22 4 7 -1 13 -13 17 -14 3 -18 11 -15 24 6 20 43
27 43 8z m-5944 -24 c10 -39 50 -66 80 -54 14 5 27 9 29 9 2 0 5 -19 7 -41 3
-38 7 -44 45 -63 53 -26 50 -42 -9 -38 -46 4 -63 -6 -69 -42 -7 -36 -24 -26
-42 24 -16 46 -48 78 -91 93 -5 2 -1 15 9 30 11 18 16 40 13 67 -4 46 17 57
28 15z m1804 -36 c0 -5 29 -54 64 -108 35 -54 69 -114 75 -134 7 -19 19 -41
27 -47 7 -7 14 -19 14 -26 0 -8 3 -14 8 -14 4 0 18 -23 31 -52 13 -28 32 -61
42 -72 11 -11 19 -26 19 -33 0 -25 -35 8 -61 56 -13 25 -30 52 -37 60 -7 8
-27 37 -43 65 -45 77 -52 88 -76 123 -13 17 -23 35 -23 39 0 4 -11 22 -25 40
-14 18 -25 38 -25 45 0 6 -12 23 -26 36 -21 19 -23 27 -14 38 9 11 17 12 31 4
10 -5 19 -14 19 -20z m-6373 -113 c16 -20 35 -29 77 -36 94 -15 98 -23 29 -58
-63 -32 -80 -60 -66 -111 7 -27 0 -27 -38 1 -35 26 -96 29 -131 6 -31 -20 -78
-31 -78 -18 0 6 16 33 35 61 19 28 35 57 35 63 0 7 -11 23 -25 36 -38 36 -32
50 20 50 35 0 52 6 77 29 22 20 35 25 38 17 3 -7 15 -25 27 -40z m-1568 -13
c-2 -79 3 -143 12 -148 5 -4 9 -24 9 -45 0 -35 13 -77 42 -133 5 -10 6 -22 3
-27 -3 -5 7 -36 23 -70 l29 -60 -27 0 c-15 0 -33 -7 -40 -15 -21 -26 -60 -17
-114 25 -12 9 -16 10 -12 3 9 -16 -6 -17 -21 -2 -9 9 -25 5 -63 -15 l-50 -26
-30 22 c-17 12 -30 23 -30 26 0 2 13 22 29 45 16 23 45 74 66 112 20 39 40 75
44 80 4 6 22 46 41 90 51 125 71 165 80 165 5 0 9 -12 9 -27z m5877 -44 c1
-37 14 -69 28 -69 7 0 21 -6 31 -14 17 -13 17 -14 -11 -27 -16 -8 -29 -20 -29
-27 0 -8 -8 -19 -17 -26 -10 -7 -18 -21 -18 -30 0 -22 -10 -20 -48 13 -28 24
-40 28 -73 24 -50 -7 -49 5 1 46 l40 32 -20 30 c-18 24 -19 29 -6 29 9 0 16
-4 16 -9 0 -19 62 12 73 36 13 29 32 25 33 -8z m-3688 -34 c21 -33 25 -35 80
-35 l57 -1 -25 -19 c-73 -55 -68 -44 -42 -89 25 -45 29 -69 10 -54 -7 5 -36
17 -65 27 -53 18 -103 15 -131 -7 -24 -19 -27 5 -5 44 l22 40 -42 19 c-37 18
-39 20 -15 20 47 0 77 18 92 55 19 44 35 44 64 0z m7458 -1 c15 -22 15 -27 3
-36 -12 -8 -11 -9 1 -5 21 6 47 -14 59 -46 13 -32 70 -70 86 -57 24 20 225 50
225 33 0 -9 -95 -103 -104 -103 -5 0 -16 -7 -25 -15 -63 -57 -60 -56 -81 -43
-17 11 -22 10 -29 -1 -7 -11 -13 -10 -35 4 -25 16 -25 18 -9 30 13 10 21 10
31 2 10 -8 19 -4 37 19 25 31 19 42 -15 24 -11 -6 -26 -8 -32 -4 -6 4 -16 0
-22 -8 -15 -20 -87 -34 -84 -16 4 20 -34 10 -57 -15 -11 -12 -19 -20 -18 -18
2 2 -7 12 -18 22 -11 9 -16 20 -10 23 5 3 11 1 13 -4 2 -6 18 5 36 25 24 25
29 35 18 35 -9 0 -16 -4 -16 -10 0 -5 -9 -10 -19 -10 -17 0 -19 6 -18 42 2 36
6 43 34 57 30 15 31 18 26 59 -7 48 0 53 23 16z m-8728 -7 c6 -7 8 -23 5 -36
-5 -21 -4 -22 16 -12 17 10 25 9 37 -4 14 -13 13 -16 -11 -25 -147 -56 -159
-66 -150 -130 13 -94 16 -210 6 -210 -21 0 -166 145 -166 166 0 16 -4 20 -19
16 -13 -3 -17 -1 -14 9 2 8 26 18 51 23 39 8 46 12 41 28 -3 12 0 18 9 18 8 0
22 11 31 25 9 14 22 24 29 22 7 -1 11 7 9 20 -4 29 30 48 58 33 14 -8 25 -7
40 2 24 15 26 34 5 42 -8 3 -15 10 -15 16 0 14 25 12 38 -3z m6172 0 c14 -6
38 -20 53 -30 24 -17 27 -23 21 -55 -10 -64 -14 -70 -61 -98 -40 -23 -53 -26
-99 -20 -81 9 -82 11 -76 64 3 29 13 55 26 68 12 12 33 34 48 51 29 33 50 37
88 20z m-664 -102 c39 -47 66 -55 93 -31 9 8 29 18 45 22 26 6 28 5 21 -12
-23 -57 -9 -105 38 -124 19 -7 16 -9 -15 -9 -50 -1 -108 -51 -108 -92 0 -43
-16 -35 -49 24 -40 70 -47 77 -81 77 -39 0 -45 15 -20 47 18 23 20 35 14 85
-8 74 7 77 62 13z m3929 -74 c5 -22 13 -30 38 -35 l32 -7 -35 -22 c-29 -18
-35 -27 -33 -54 2 -40 -12 -51 -27 -22 -10 18 -18 21 -51 16 -40 -5 -51 7 -27
31 9 9 7 19 -11 43 l-24 32 26 -7 c34 -8 74 8 82 33 9 30 22 26 30 -8z m-2562
9 c21 0 69 -47 55 -53 -8 -4 -5 -8 10 -13 16 -5 21 -12 17 -25 -4 -13 -1 -19
9 -19 17 0 49 -57 40 -72 -3 -5 4 -12 16 -15 12 -3 19 -11 16 -19 -3 -7 0 -14
7 -17 7 -2 12 -12 12 -23 0 -10 6 -18 13 -16 6 1 12 -2 12 -8 0 -6 -6 -10 -12
-10 -10 0 -10 -2 0 -8 7 -5 10 -15 7 -23 -7 -18 37 -45 54 -35 7 4 11 -1 11
-13 0 -10 -5 -21 -11 -23 -8 -3 -6 -10 5 -21 16 -16 16 -18 -9 -29 -22 -10
-28 -9 -41 10 -8 12 -21 22 -27 22 -7 0 -23 24 -37 52 -20 42 -42 66 -67 74
-2 0 -6 25 -9 54 -7 62 -33 119 -62 137 -37 22 -70 112 -36 99 9 -3 21 -6 27
-6z m-6465 -86 c57 -12 59 -14 27 -39 -67 -54 -68 -55 -61 -95 l6 -38 -38 5
c-25 3 -50 -1 -70 -11 -18 -9 -32 -14 -32 -10 0 4 14 29 30 56 34 55 36 70 15
88 -13 11 -11 15 17 29 18 9 41 34 52 56 l21 40 3 -37 c3 -32 8 -39 30 -44z
m632 39 c0 -15 -2 -16 -10 -3 -7 11 -10 1 -10 -34 0 -50 19 -86 47 -86 30 0
10 -16 -47 -39 -50 -19 -66 -21 -88 -12 -15 6 -40 13 -56 15 -39 7 -43 14 -18
32 23 16 29 48 12 59 -24 15 -7 25 30 19 36 -6 44 -3 80 30 44 40 60 45 60 19z
m5748 -71 c-19 -32 -10 -59 17 -48 13 5 16 2 11 -10 -3 -8 -6 -22 -6 -30 0
-10 -10 -12 -43 -8 -42 6 -44 5 -89 -48 -25 -29 -64 -83 -87 -118 -41 -66 -49
-66 -32 -1 6 20 15 82 21 137 11 93 14 103 37 113 15 7 23 17 20 25 -3 8 4 24
15 35 15 17 23 19 33 11 10 -9 19 -6 35 10 l21 21 32 -31 c30 -30 31 -31 15
-58z m-1658 43 c0 -14 5 -25 10 -25 6 0 10 -8 10 -18 0 -28 20 -43 42 -31 11
6 26 8 34 5 12 -5 10 -14 -11 -50 -24 -41 -25 -45 -8 -50 21 -8 59 -56 43 -56
-6 0 -27 7 -47 15 -55 23 -80 19 -98 -15 -9 -16 -19 -30 -24 -30 -4 0 -11 24
-14 53 -5 39 -13 58 -32 75 -30 26 -28 34 19 56 28 13 35 23 41 56 8 45 35 57
35 15z m3580 -145 c0 -5 -9 -10 -20 -10 -11 0 -20 -4 -20 -10 0 -5 9 -10 20
-10 11 0 20 -4 20 -10 0 -5 7 -7 15 -4 8 4 15 12 15 20 0 8 7 14 15 14 24 0
19 -9 -38 -65 -29 -28 -62 -69 -73 -90 -28 -54 -44 -56 -45 -6 -4 168 -6 155
32 168 42 15 79 16 79 3z m1108 -167 c45 -28 72 -56 72 -74 0 -56 -57 -97
-118 -85 -28 6 -55 -4 -50 -20 6 -23 -13 -74 -32 -84 -24 -13 -79 6 -81 27 -1
7 -2 18 -3 24 -1 7 9 15 22 20 16 6 22 5 22 -6 0 -17 16 -20 25 -5 3 6 1 10
-5 10 -7 0 -10 7 -6 15 5 13 -4 18 -31 14 -3 0 -10 6 -15 15 -5 9 -18 16 -28
16 -11 0 -20 2 -20 5 0 16 71 80 108 98 24 11 46 26 49 34 7 18 58 16 91 -4z
m-4488 -59 c12 -32 35 -30 65 4 l24 27 1 -36 c0 -36 17 -60 53 -72 27 -10 20
-35 -10 -39 -20 -2 -32 -12 -43 -35 -8 -18 -18 -33 -23 -33 -4 0 -17 20 -29
45 -22 44 -22 44 -65 38 -24 -3 -43 -3 -43 1 0 4 12 19 26 34 19 21 24 35 22
64 -4 39 8 41 22 2z m3272 -93 c57 -25 79 -40 87 -60 14 -35 29 -113 23 -129
-5 -16 -43 -16 -41 1 3 27 -2 35 -21 30 -14 -4 -20 0 -20 11 0 10 -5 14 -10
11 -6 -4 -17 -1 -25 5 -10 8 -15 9 -15 2 0 -6 9 -16 20 -22 23 -12 26 -38 6
-46 -14 -5 -66 36 -66 52 0 6 -14 18 -31 28 -30 18 -31 18 -46 -4 -10 -14 -22
-20 -35 -17 -14 4 -22 0 -25 -11 -2 -10 -18 -24 -34 -31 -17 -7 -35 -25 -40
-39 -8 -21 -12 -23 -19 -12 -8 12 -10 10 -10 -7 0 -29 -14 -29 -34 -2 -18 26
-40 16 -32 -15 5 -19 4 -20 -8 -3 -11 14 -9 28 11 90 13 39 26 98 30 130 6 61
19 70 64 47 26 -14 44 -3 27 17 -11 13 -2 15 77 11 74 -3 104 -10 167 -37z
m3124 13 c27 -4 60 -15 73 -25 13 -11 32 -19 41 -19 19 0 30 -27 30 -77 0 -38
-29 -73 -60 -73 -26 0 -72 23 -89 44 -17 20 -40 20 -62 0 -30 -27 -90 -29
-123 -3 -26 20 -28 26 -22 68 8 60 34 86 88 90 23 1 45 4 47 7 3 2 10 3 17 0
6 -2 33 -8 60 -12z m-12096 -98 c0 -8 -4 -18 -10 -21 -16 -10 -12 -28 5 -22
10 4 6 -8 -11 -38 -14 -25 -20 -45 -13 -45 21 0 3 -24 -24 -31 -31 -8 -38 -1
-52 56 -8 30 -15 41 -33 43 -18 3 -26 -3 -35 -27 -15 -39 -31 -40 -25 -1 3 19
0 31 -9 35 -11 4 -11 10 4 29 15 21 20 22 29 11 20 -26 61 -29 94 -5 16 12 30
19 30 15 0 -3 8 -1 18 4 24 14 32 13 32 -3z m8909 -197 c11 -10 27 -19 34 -19
18 0 29 -49 20 -91 -5 -27 -4 -30 18 -27 13 2 24 -1 24 -7 0 -5 -8 -10 -17 -9
-13 0 -15 -3 -7 -12 7 -8 7 -14 -1 -19 -20 -12 -11 -33 12 -27 14 3 19 2 14
-6 -4 -7 -14 -12 -22 -12 -8 0 -14 -4 -14 -9 0 -11 -37 -22 -43 -12 -2 3 -2 0
-1 -6 3 -13 -25 -33 -45 -33 -15 0 -14 27 2 34 8 3 5 11 -10 24 -13 11 -23 25
-23 31 0 6 -9 11 -20 11 -23 0 -27 18 -5 26 19 8 20 34 1 34 -7 0 -19 -7 -26
-15 -10 -12 -16 -11 -45 8 -41 27 -60 59 -50 84 5 10 8 21 7 24 -2 14 80 51
103 45 13 -3 26 -2 29 3 8 13 40 3 65 -20z m-4019 -91 c24 -62 48 -114 52
-116 4 -2 8 -12 8 -22 0 -10 5 -22 10 -25 6 -4 8 -10 5 -15 -3 -5 0 -21 6 -37
6 -15 16 -39 21 -53 6 -14 14 -33 19 -42 11 -22 11 -28 0 -28 -5 0 -12 8 -15
18 -4 10 -21 25 -39 34 -33 16 -33 15 -50 -13 -15 -28 -47 -40 -47 -19 0 6 9
10 20 10 11 0 20 5 20 10 0 11 -11 13 -34 4 -9 -3 -16 -12 -16 -20 0 -8 -5
-14 -10 -14 -6 0 1 -12 15 -26 21 -20 23 -29 14 -40 -6 -8 -17 -14 -23 -14 -6
0 -6 4 2 9 11 7 9 13 -10 31 -12 12 -32 26 -43 30 -17 7 -17 9 -2 9 29 1 19
21 -10 22 -83 0 -84 1 -72 15 14 17 5 18 -22 4 -38 -21 -71 -130 -39 -130 5 0
7 -7 4 -15 -4 -10 3 -18 20 -25 25 -9 37 -40 15 -40 -6 0 -8 -8 -4 -19 5 -17
-17 -37 -37 -33 -5 1 -8 -4 -8 -12 0 -7 -9 -16 -19 -19 -13 -3 -18 0 -15 8 6
15 -13 31 -47 40 -22 5 -27 3 -32 -16 -4 -13 -9 -20 -13 -16 -4 4 -3 17 3 30
22 50 268 542 273 547 3 3 15 26 27 53 13 26 24 47 26 47 2 0 23 -51 47 -112z
m1994 -263 c-4 -8 -10 -15 -16 -15 -5 0 -5 -6 0 -16 22 -39 -29 -128 -90 -160
-26 -13 -28 -13 -28 5 0 11 4 22 9 26 15 8 41 66 41 88 0 10 -13 32 -30 47
-41 38 -40 60 5 60 33 0 74 29 76 54 0 6 9 -8 19 -32 11 -23 17 -49 14 -57z
m-1054 -6 c0 -8 -38 -19 -69 -19 -24 0 -25 -13 -5 -64 4 -11 1 -16 -10 -16 -9
0 -16 -8 -16 -19 0 -11 -9 -22 -19 -26 -25 -8 -95 25 -99 47 -2 9 15 37 38 62
l41 44 70 -1 c38 -1 69 -5 69 -8z m2128 -41 c15 0 24 -8 28 -24 3 -13 12 -24
19 -24 7 0 15 -7 19 -15 3 -8 16 -15 28 -15 13 0 28 -8 35 -19 8 -13 19 -17
37 -14 21 4 25 2 20 -11 -4 -11 -1 -16 10 -16 9 0 28 -11 42 -25 15 -15 36
-25 54 -25 17 0 40 -10 56 -25 16 -15 39 -25 56 -25 33 0 78 -26 78 -45 0 -20
39 -25 50 -7 7 13 10 8 12 -23 1 -22 1 -50 0 -63 -1 -19 2 -21 13 -12 8 6 19
9 25 5 11 -7 14 -36 3 -33 -5 0 -19 -4 -33 -10 l-25 -11 25 -2 c14 -1 31 -1
38 0 6 1 12 -3 12 -9 0 -5 5 -10 11 -10 12 0 59 -46 59 -58 0 -4 15 -14 33
-21 17 -8 38 -23 45 -33 7 -10 19 -18 27 -18 8 0 18 -6 22 -13 4 -6 26 -25 48
-41 22 -16 45 -34 50 -40 6 -6 28 -20 50 -31 22 -12 41 -29 43 -38 5 -26 -30
-21 -64 8 -16 14 -32 25 -36 25 -3 0 -24 15 -47 33 -47 38 -85 66 -116 87 -67
45 -84 58 -125 91 -55 45 -131 79 -177 79 -53 0 -89 24 -108 72 -10 27 -29 52
-50 67 -19 13 -35 29 -35 35 0 13 -78 81 -140 122 -24 16 -55 39 -68 52 -14
12 -28 22 -33 22 -4 0 -21 12 -38 26 -34 28 -32 50 3 39 11 -4 31 -7 44 -7z
m-1269 -266 c8 -14 21 -22 39 -22 15 -1 38 -7 51 -14 l24 -13 -42 -23 c-32
-19 -41 -29 -41 -51 0 -15 4 -30 10 -34 5 -3 6 -13 3 -21 -4 -11 -14 -14 -37
-10 -17 3 -56 -1 -86 -9 -30 -8 -58 -15 -63 -15 -4 0 9 22 28 50 19 27 35 54
35 59 0 5 -17 20 -37 33 l-38 23 47 9 c47 9 68 32 68 75 0 29 14 34 21 9 3
-14 12 -34 18 -46z m-589 8 c0 -5 7 -10 16 -10 8 0 22 -15 30 -32 9 -18 26
-51 39 -73 31 -51 47 -87 41 -92 -10 -10 -246 120 -246 135 0 4 21 8 46 10 60
3 67 8 62 43 -3 16 -1 29 4 29 4 0 8 -4 8 -10z m3 -261 c12 -6 34 -22 48 -36
26 -23 48 -30 79 -22 8 2 14 -2 13 -8 -4 -18 8 -16 22 4 7 9 19 14 29 10 23
-9 20 -26 -8 -37 -24 -9 -53 -47 -48 -62 1 -5 -2 -8 -6 -8 -13 0 -32 23 -32
39 0 16 -28 51 -42 51 -4 0 -8 -8 -8 -18 0 -25 -20 -42 -48 -42 -23 0 -24 2
-18 44 4 27 3 47 -4 51 -10 6 -14 45 -4 45 3 0 15 -5 27 -11z"/>
<path d="M15035 13600 c-50 -4 -61 -8 -63 -25 -2 -11 -12 -38 -23 -61 -23 -49
-24 -63 -3 -92 10 -14 25 -22 45 -22 34 0 79 26 79 46 0 9 12 14 36 14 85 0
91 98 8 136 -10 5 -46 7 -79 4z"/>
<path d="M14619 13252 c12 -23 0 -37 -42 -47 -15 -4 -27 -11 -27 -16 0 -5 -7
-9 -15 -9 -8 0 -31 -9 -51 -20 -20 -12 -44 -18 -55 -15 -23 7 -25 -7 -4 -25 9
-7 25 -10 41 -6 22 6 25 4 19 -13 -4 -14 0 -21 16 -26 14 -5 18 -10 10 -14
-13 -9 0 -23 32 -34 20 -7 23 -27 5 -27 -9 0 -8 -3 2 -9 8 -6 18 -7 22 -5 4 3
8 -3 8 -13 1 -17 1 -17 11 0 8 13 19 16 47 12 41 -6 50 -2 75 38 22 34 17 53
-29 117 -20 28 -34 59 -34 76 0 19 -8 34 -21 42 -18 12 -19 11 -10 -6z"/>
<path d="M3480 12476 c0 -9 -5 -16 -11 -16 -8 0 -8 -4 1 -15 9 -11 8 -20 -9
-43 -12 -18 -18 -37 -14 -51 3 -12 0 -33 -7 -46 -15 -29 -7 -55 17 -55 15 0
15 2 4 9 -11 7 -9 10 9 13 28 4 39 28 13 28 -11 1 -6 6 15 15 17 8 32 20 32
27 0 7 3 24 7 37 5 21 3 23 -15 19 -12 -4 -22 -2 -22 3 0 5 11 11 25 15 28 7
32 22 13 46 -19 24 -58 33 -58 14z"/>
<path d="M10820 12148 c0 -6 -18 -26 -40 -45 -61 -53 -54 -107 15 -115 21 -2
29 1 27 10 -1 8 2 10 8 7 6 -4 19 0 29 10 12 10 27 14 44 10 19 -5 33 0 57 22
31 28 32 29 13 50 -10 12 -47 31 -82 42 -76 25 -71 24 -71 9z"/>
<path d="M1356 8221 c-19 -21 -19 -21 11 -68 35 -57 55 -59 112 -12 30 26 36
37 33 60 -3 22 -10 29 -27 29 -12 0 -42 3 -66 6 -37 5 -47 3 -63 -15z"/>
<path d="M13383 7177 c-4 -6 -1 -13 5 -15 16 -5 15 -33 0 -31 -27 5 -158 -39
-158 -53 0 -5 -10 -13 -22 -19 l-23 -10 23 5 c12 2 22 0 22 -5 0 -13 93 2 112
19 10 8 24 12 32 9 22 -9 76 15 76 33 0 9 4 20 9 26 14 14 -9 40 -42 46 -15 3
-30 1 -34 -5z"/>
<path d="M12595 7093 c-38 -48 -48 -89 -30 -124 8 -15 19 -30 24 -34 15 -8 80
21 87 40 5 12 16 14 55 9 45 -6 49 -5 57 17 12 32 5 52 -26 81 -27 24 -91 48
-123 46 -9 -1 -29 -17 -44 -35z"/>
</g>
</svg>
